<svg id="svg" version="1.1" xmlns="http://www.w3.org/2000/svg" xmlns:xlink="http://www.w3.org/1999/xlink" width="400" height="433.3333333333333" viewBox="0, 0, 400,433.3333333333333"><g id="svgg"><path id="path0" d="M195.906 59.964 C 192.901 60.973,192.898 62.106,195.899 62.594 C 197.340 62.828,197.633 62.758,197.828 62.135 C 197.955 61.731,198.217 61.100,198.411 60.734 C 199.021 59.583,197.988 59.266,195.906 59.964 M183.796 60.354 C 183.665 60.696,183.686 60.848,183.842 60.691 C 183.998 60.535,184.368 60.607,184.663 60.852 C 185.081 61.199,185.200 61.125,185.200 60.516 C 185.200 59.587,184.138 59.465,183.796 60.354 M190.006 59.872 C 190.003 60.132,189.595 60.403,189.100 60.474 C 188.358 60.581,188.536 60.769,190.121 61.548 C 192.214 62.576,192.260 62.573,192.462 61.400 C 192.565 60.803,192.347 60.564,191.600 60.460 C 191.050 60.382,190.468 60.112,190.306 59.860 C 190.087 59.517,190.011 59.521,190.006 59.872 M179.716 61.200 C 179.582 61.711,179.170 62.000,178.577 62.000 C 177.449 62.000,176.889 62.754,177.649 63.249 C 178.829 64.018,182.189 63.480,182.328 62.500 C 182.451 61.635,182.110 61.442,180.532 61.487 C 180.274 61.495,180.158 61.253,180.274 60.950 C 180.391 60.648,180.359 60.400,180.205 60.400 C 180.051 60.400,179.831 60.760,179.716 61.200 M186.835 60.958 C 186.484 61.380,186.527 61.563,187.023 61.753 C 187.924 62.099,188.000 62.074,188.000 61.424 C 188.000 60.581,187.360 60.325,186.835 60.958 M206.600 61.467 C 201.979 61.752,199.600 62.088,199.600 62.455 C 199.600 62.671,199.788 62.731,200.018 62.589 C 200.247 62.447,200.695 62.547,201.012 62.810 C 201.330 63.074,201.888 63.175,202.253 63.035 C 202.617 62.895,203.219 63.055,203.590 63.391 C 203.979 63.743,204.756 63.937,205.432 63.851 C 207.828 63.544,209.616 63.098,209.828 62.755 C 209.949 62.560,210.442 62.399,210.924 62.398 C 211.706 62.395,211.677 62.331,210.654 61.798 C 210.024 61.469,209.304 61.232,209.054 61.272 C 208.804 61.312,207.700 61.400,206.600 61.467 M174.983 64.427 C 174.838 64.662,174.442 64.748,174.103 64.618 C 173.736 64.477,173.253 64.718,172.904 65.216 C 172.582 65.675,171.880 66.217,171.344 66.421 C 170.476 66.751,170.421 66.893,170.851 67.695 C 171.209 68.365,171.384 68.449,171.526 68.022 C 171.941 66.776,173.511 65.704,175.316 65.434 C 177.307 65.135,177.995 64.637,176.965 64.242 C 176.021 63.880,175.279 63.949,174.983 64.427 M178.400 64.600 C 178.400 65.228,179.095 65.369,180.165 64.958 C 181.052 64.618,180.544 64.000,179.376 64.000 C 178.775 64.000,178.400 64.231,178.400 64.600 M207.384 65.796 C 205.586 66.723,205.453 66.886,206.170 67.287 C 206.637 67.548,207.139 67.470,207.807 67.032 C 208.338 66.684,209.183 66.394,209.686 66.387 C 210.189 66.380,210.960 66.100,211.400 65.765 C 212.362 65.031,208.814 65.059,207.384 65.796 M190.250 70.088 C 189.127 71.523,189.151 71.796,190.367 71.410 C 191.432 71.072,192.400 70.101,192.400 69.371 C 192.400 68.382,191.298 68.749,190.250 70.088 M169.691 70.721 C 168.800 71.494,168.501 72.400,169.138 72.400 C 169.688 72.400,170.895 70.884,170.732 70.397 C 170.638 70.115,170.251 70.235,169.691 70.721 M157.683 72.301 C 157.762 72.773,157.559 72.980,157.057 72.937 C 156.649 72.903,156.469 73.019,156.657 73.194 C 157.059 73.569,159.600 73.245,159.600 72.819 C 159.600 72.659,159.142 72.320,158.583 72.065 C 157.695 71.660,157.580 71.691,157.683 72.301 M165.614 72.217 C 166.012 72.697,166.019 72.941,165.646 73.314 C 165.287 73.673,165.095 73.677,164.882 73.333 C 164.463 72.655,162.444 73.170,161.957 74.080 C 161.722 74.520,161.290 74.766,160.969 74.644 C 160.656 74.523,160.400 74.599,160.400 74.813 C 160.400 75.026,160.265 75.179,160.100 75.153 C 159.312 75.028,159.060 75.250,159.600 75.594 C 160.072 75.895,159.930 76.031,158.929 76.232 C 158.121 76.395,157.731 76.676,157.857 77.004 C 157.966 77.287,157.862 77.638,157.627 77.783 C 156.138 78.703,158.269 79.126,160.775 78.407 C 162.426 77.934,162.841 77.360,162.390 76.175 C 162.024 75.211,162.226 74.800,163.067 74.800 C 163.360 74.800,163.614 75.205,163.632 75.700 C 163.649 76.195,163.755 76.371,163.868 76.090 C 163.981 75.810,164.732 75.281,165.537 74.914 C 167.003 74.247,167.370 74.132,168.300 74.046 C 169.023 73.979,168.917 72.800,168.187 72.800 C 167.851 72.800,167.471 72.530,167.345 72.200 C 167.218 71.870,166.662 71.600,166.108 71.600 C 165.247 71.600,165.176 71.689,165.614 72.217 M203.611 76.785 C 203.104 77.105,203.116 77.193,203.692 77.414 C 204.426 77.696,205.200 77.368,205.200 76.776 C 205.200 76.297,204.375 76.302,203.611 76.785 M152.887 81.824 C 152.222 82.290,152.059 82.694,152.242 83.424 C 152.497 84.440,152.187 84.633,151.249 84.039 C 150.946 83.847,150.821 83.489,150.972 83.245 C 151.136 82.980,150.948 82.800,150.506 82.800 C 149.634 82.800,148.470 87.149,149.218 87.611 C 150.342 88.306,147.617 90.288,146.256 89.766 C 145.873 89.619,145.600 89.714,145.600 89.993 C 145.600 90.317,144.984 90.428,143.700 90.336 C 142.338 90.238,141.828 90.341,141.900 90.700 C 141.955 90.975,141.850 91.200,141.667 91.200 C 141.483 91.200,141.333 91.453,141.333 91.762 C 141.333 92.071,141.572 92.232,141.864 92.120 C 142.156 92.008,142.307 91.774,142.200 91.600 C 142.093 91.426,142.288 91.175,142.635 91.042 C 143.665 90.647,144.000 90.760,143.994 91.500 C 143.989 92.098,143.931 92.113,143.600 91.600 C 143.268 91.086,143.211 91.098,143.206 91.690 C 143.203 92.070,142.525 92.756,141.700 93.214 C 140.875 93.672,140.530 93.946,140.933 93.823 C 141.413 93.677,141.606 93.773,141.492 94.100 C 141.396 94.375,141.021 94.547,140.659 94.482 C 139.830 94.335,139.826 94.569,140.644 95.387 C 141.237 95.980,141.210 96.017,140.307 95.854 C 139.012 95.619,138.491 95.986,138.252 97.302 C 138.144 97.899,137.950 98.557,137.821 98.766 C 137.455 99.359,138.373 99.720,138.975 99.220 C 139.396 98.871,139.503 98.930,139.458 99.486 C 139.426 99.879,139.239 100.317,139.042 100.460 C 138.845 100.602,138.803 101.032,138.950 101.414 C 139.197 102.059,139.269 102.061,139.940 101.454 C 140.975 100.518,141.154 100.632,140.949 102.100 L 140.768 103.400 141.373 102.400 C 141.706 101.850,142.256 100.815,142.595 100.100 C 143.053 99.134,143.473 98.800,144.232 98.800 C 145.735 98.800,146.799 98.094,147.380 96.712 C 148.021 95.187,147.746 94.000,146.750 94.000 C 146.100 94.000,146.062 93.890,146.480 93.220 C 146.839 92.645,147.101 92.552,147.479 92.865 C 147.858 93.180,148.051 93.098,148.227 92.545 C 148.569 91.464,149.683 89.438,150.084 89.168 C 150.273 89.040,150.758 88.321,151.161 87.569 C 151.635 86.685,152.332 86.077,153.137 85.846 C 153.821 85.650,154.487 85.155,154.618 84.745 C 154.748 84.335,155.022 84.000,155.227 84.000 C 155.432 84.000,155.600 83.745,155.600 83.433 C 155.600 83.122,155.812 82.796,156.072 82.709 C 156.335 82.622,156.429 82.253,156.285 81.876 C 155.954 81.016,154.082 80.987,152.887 81.824 M251.200 83.998 C 251.200 84.483,252.322 85.012,252.652 84.682 C 252.771 84.562,252.493 84.264,252.034 84.018 C 251.456 83.709,251.200 83.703,251.200 83.998 M143.351 88.184 C 142.669 88.963,142.614 89.197,143.072 89.372 C 143.388 89.493,143.533 89.415,143.397 89.195 C 143.263 88.978,143.395 88.800,143.691 88.800 C 143.987 88.800,144.229 88.440,144.229 88.000 C 144.229 87.560,144.222 87.203,144.214 87.207 C 144.206 87.211,143.818 87.651,143.351 88.184 M144.500 89.065 C 143.804 89.346,143.873 90.000,144.600 90.000 C 144.930 90.000,145.200 89.730,145.200 89.400 C 145.200 89.070,145.155 88.814,145.100 88.832 C 145.045 88.849,144.775 88.954,144.500 89.065 M143.280 102.480 C 143.016 102.744,142.800 103.305,142.800 103.727 C 142.800 104.311,142.581 104.451,141.879 104.317 C 140.927 104.135,140.476 104.441,139.685 105.805 C 139.272 106.518,139.223 106.527,139.212 105.886 C 139.205 105.493,139.494 104.723,139.854 104.173 C 140.214 103.624,140.394 103.061,140.254 102.921 C 140.114 102.781,140.000 102.887,140.000 103.157 C 140.000 103.427,139.822 103.537,139.605 103.403 C 139.370 103.258,139.316 103.437,139.473 103.845 C 139.644 104.291,139.582 104.436,139.296 104.259 C 138.748 103.921,138.423 104.419,138.311 105.764 C 138.264 106.334,138.074 106.800,137.889 106.800 C 137.704 106.800,137.656 106.966,137.781 107.170 C 137.907 107.373,137.693 107.622,137.305 107.723 C 136.638 107.897,136.639 107.910,137.313 107.954 C 137.704 107.979,138.129 107.730,138.255 107.400 C 138.740 106.137,139.558 106.750,139.323 108.200 C 139.147 109.284,139.232 109.600,139.702 109.600 C 140.419 109.600,141.600 107.930,141.601 106.914 C 141.601 106.521,142.141 105.570,142.800 104.800 C 144.174 103.195,144.593 101.167,143.280 102.480 M261.902 104.100 C 261.663 104.749,261.965 105.600,262.433 105.600 C 262.635 105.600,262.800 105.150,262.800 104.600 C 262.800 103.557,262.220 103.234,261.902 104.100 M182.800 116.573 C 182.800 117.007,183.180 117.200,184.033 117.200 C 185.564 117.200,185.426 116.258,183.869 116.073 C 183.111 115.984,182.800 116.129,182.800 116.573 M182.439 120.622 C 181.691 120.947,181.183 121.317,181.311 121.444 C 181.743 121.876,184.000 121.141,184.000 120.568 C 184.000 119.894,184.127 119.890,182.439 120.622 M186.200 121.748 C 186.640 122.093,187.441 122.380,187.980 122.387 C 189.329 122.405,188.549 121.754,186.800 121.403 C 185.475 121.137,185.443 121.156,186.200 121.748 M181.459 124.234 C 181.512 124.912,181.587 125.632,181.625 125.834 C 181.815 126.836,181.545 128.042,181.100 128.177 C 180.825 128.260,179.745 128.564,178.700 128.852 C 177.655 129.139,176.800 129.572,176.800 129.812 C 176.800 130.754,174.446 132.000,172.665 132.000 C 171.637 132.000,170.703 132.235,170.433 132.561 C 169.908 133.193,175.797 133.448,176.592 132.827 C 176.816 132.651,177.450 132.406,178.000 132.282 C 178.550 132.157,179.675 131.882,180.500 131.670 C 182.252 131.219,182.563 131.806,180.906 132.436 C 180.304 132.665,179.269 133.092,178.606 133.386 C 176.518 134.312,174.724 134.800,173.412 134.800 C 172.714 134.800,171.291 135.090,170.250 135.445 C 169.208 135.800,168.254 135.987,168.128 135.861 C 168.001 135.735,167.269 135.895,166.500 136.216 C 165.731 136.537,164.685 136.800,164.175 136.800 C 163.665 136.800,163.136 136.980,163.000 137.200 C 162.864 137.420,162.280 137.600,161.702 137.600 C 161.124 137.600,160.262 137.966,159.785 138.414 C 159.000 139.152,158.750 139.184,157.141 138.753 C 152.935 137.628,151.833 139.747,150.771 151.000 C 149.411 165.411,149.289 168.473,149.838 174.400 C 150.134 177.590,150.381 180.825,150.388 181.589 L 150.400 182.978 149.729 182.020 C 149.222 181.297,149.053 180.149,149.036 177.331 C 149.024 175.279,148.852 173.600,148.654 173.600 C 148.040 173.600,145.600 175.244,145.600 175.658 C 145.600 175.874,145.015 175.994,144.300 175.925 L 143.000 175.800 143.033 173.332 C 143.056 171.580,143.288 170.553,143.833 169.790 C 144.255 169.199,144.971 168.059,145.424 167.257 C 145.877 166.456,146.732 165.565,147.324 165.278 C 148.954 164.488,148.818 162.465,147.000 160.453 C 146.230 159.600,145.600 158.734,145.600 158.527 C 145.600 157.840,143.981 156.400,143.208 156.400 C 140.891 156.400,135.600 163.763,135.600 166.988 C 135.600 168.115,134.633 168.385,134.243 167.367 C 133.834 166.301,133.967 160.400,134.400 160.400 C 134.620 160.400,134.800 160.051,134.800 159.624 C 134.800 159.197,134.980 158.736,135.200 158.600 C 135.420 158.464,135.600 157.924,135.600 157.400 C 135.600 156.876,135.780 156.336,136.000 156.200 C 136.220 156.064,136.402 155.648,136.403 155.276 C 136.408 154.353,139.080 151.600,139.971 151.600 C 141.098 151.600,142.893 153.172,146.500 157.318 C 147.189 158.109,147.200 158.102,147.200 156.848 C 147.200 154.439,146.269 153.068,143.355 151.188 C 140.112 149.095,139.630 148.569,139.613 147.100 C 139.606 146.495,139.456 146.000,139.280 146.000 C 138.687 146.000,138.000 146.954,137.998 147.780 C 137.994 149.118,137.183 151.637,136.827 151.417 C 136.646 151.305,136.394 151.728,136.268 152.358 C 136.142 152.988,135.748 153.794,135.393 154.150 C 135.037 154.505,134.731 155.331,134.713 155.984 C 134.694 156.638,134.532 157.081,134.351 156.970 C 134.171 156.858,133.909 157.225,133.768 157.784 C 133.628 158.343,133.353 158.800,133.157 158.800 C 132.960 158.800,132.800 159.340,132.800 160.000 C 132.800 160.660,132.642 161.200,132.448 161.200 C 131.934 161.200,131.870 169.472,132.381 169.788 C 132.612 169.931,132.800 170.667,132.800 171.424 C 132.800 172.181,132.980 172.800,133.200 172.800 C 133.420 172.800,133.600 173.064,133.600 173.386 C 133.600 174.110,134.889 176.951,135.300 177.133 C 135.465 177.207,135.600 177.612,135.600 178.033 C 135.600 178.455,135.780 178.800,136.000 178.800 C 136.220 178.800,136.400 179.160,136.400 179.600 C 136.400 180.040,136.580 180.400,136.800 180.400 C 137.020 180.400,137.200 180.634,137.200 180.920 C 137.200 181.656,138.141 183.593,138.500 183.597 C 138.665 183.599,138.800 183.960,138.800 184.400 C 138.800 184.840,138.980 185.200,139.200 185.200 C 139.420 185.200,139.600 185.650,139.600 186.200 C 139.600 186.750,139.735 187.201,139.900 187.203 C 140.259 187.207,141.200 189.144,141.200 189.880 C 141.200 190.166,141.335 190.401,141.500 190.403 C 141.848 190.407,142.800 192.335,142.800 193.037 C 142.800 193.300,143.070 193.618,143.400 193.745 C 143.730 193.871,144.000 194.271,144.000 194.633 C 144.000 195.312,148.130 195.298,150.239 194.612 C 151.037 194.352,151.081 194.483,151.132 197.267 C 151.162 198.878,151.370 200.257,151.593 200.331 C 151.817 200.406,152.000 201.251,152.000 202.210 C 152.000 203.168,152.180 204.064,152.400 204.200 C 152.620 204.336,152.800 204.919,152.800 205.495 C 152.800 206.698,153.425 208.885,154.240 210.532 C 154.548 211.155,154.800 212.100,154.800 212.632 C 154.800 213.165,154.980 213.600,155.200 213.600 C 155.420 213.600,155.600 213.883,155.600 214.229 C 155.600 214.574,155.872 215.129,156.204 215.461 C 156.536 215.793,156.709 216.224,156.588 216.419 C 156.468 216.614,156.736 217.003,157.184 217.283 C 157.633 217.563,158.000 218.019,158.000 218.296 C 158.000 218.573,158.180 218.800,158.400 218.800 C 158.620 218.800,158.800 219.070,158.800 219.400 C 158.800 219.730,159.070 220.000,159.400 220.000 C 159.730 220.000,160.000 220.276,160.000 220.613 C 160.000 220.949,159.730 221.329,159.400 221.455 C 158.706 221.722,158.537 225.390,159.200 225.800 C 159.748 226.139,159.733 235.200,159.184 235.200 C 158.956 235.200,159.111 235.567,159.529 236.016 C 160.167 236.701,160.335 237.735,160.575 242.465 C 160.861 248.090,160.863 248.102,162.564 251.349 C 165.063 256.119,168.019 261.118,168.649 261.641 C 168.952 261.892,169.204 262.301,169.209 262.549 C 169.214 262.797,169.858 263.710,170.639 264.577 C 171.420 265.445,172.454 266.615,172.938 267.177 C 177.366 272.333,187.185 279.845,191.083 281.060 C 195.370 282.397,195.491 282.511,197.398 287.000 C 197.772 287.880,198.510 289.452,199.039 290.493 C 199.567 291.534,200.000 292.652,200.000 292.979 C 200.000 293.305,200.540 294.187,201.200 294.939 C 202.334 296.231,202.400 296.494,202.400 299.745 C 202.400 302.682,202.762 306.191,203.449 309.900 C 204.064 313.224,207.279 307.263,207.383 302.606 C 207.462 299.121,207.162 298.233,205.332 296.523 C 204.134 295.404,203.138 290.291,203.747 288.385 C 203.849 288.063,204.040 287.311,204.171 286.714 C 204.407 285.634,205.793 283.979,207.052 283.275 C 207.890 282.806,207.497 282.167,205.875 281.359 C 204.763 280.806,202.316 278.634,199.301 275.526 C 198.807 275.017,197.465 273.439,196.320 272.020 C 194.148 269.329,192.582 267.710,188.525 263.965 C 187.193 262.736,185.773 261.206,185.369 260.565 C 184.468 259.135,182.738 256.951,181.401 255.556 C 180.850 254.982,180.400 254.302,180.400 254.046 C 180.400 253.789,179.613 252.792,178.652 251.831 C 177.690 250.869,176.656 249.524,176.354 248.841 C 176.052 248.159,175.677 247.600,175.521 247.600 C 175.365 247.600,174.893 246.835,174.472 245.900 C 174.051 244.965,173.047 243.300,172.239 242.200 C 169.936 239.063,167.200 234.728,167.200 234.217 C 167.200 233.962,166.936 233.404,166.613 232.976 C 165.839 231.954,165.785 230.923,166.537 231.548 C 166.832 231.793,167.183 231.884,167.316 231.751 C 167.449 231.618,168.042 231.889,168.633 232.354 C 169.840 233.304,170.811 233.429,171.515 232.725 C 171.881 232.359,172.214 232.462,172.974 233.176 C 173.905 234.050,175.553 234.094,175.019 233.230 C 174.891 233.024,174.970 232.742,175.193 232.604 C 175.417 232.466,175.600 232.633,175.600 232.976 C 175.600 233.319,175.936 233.600,176.346 233.600 C 176.756 233.600,177.550 233.960,178.109 234.400 C 179.285 235.325,182.782 235.547,182.825 234.700 C 182.839 234.425,183.012 234.601,183.209 235.091 C 183.615 236.101,185.992 235.217,185.997 234.053 C 185.999 233.674,186.334 233.571,187.088 233.715 C 188.594 234.003,191.001 232.955,191.537 231.778 C 191.847 231.098,192.306 230.800,193.045 230.800 C 194.308 230.800,197.194 230.016,197.900 229.481 C 198.262 229.207,198.400 229.336,198.400 229.951 C 198.400 230.930,201.355 231.239,201.736 230.300 C 201.890 229.921,202.038 229.942,202.347 230.387 C 202.628 230.791,202.614 231.142,202.303 231.517 C 201.730 232.207,202.537 232.794,203.657 232.501 C 205.410 232.042,205.373 230.397,203.592 229.614 C 203.046 229.374,201.340 228.467,199.800 227.599 C 196.873 225.949,194.752 224.889,193.400 224.400 C 189.422 222.962,185.267 220.381,184.170 218.666 C 183.747 218.004,183.135 217.053,182.811 216.553 C 181.984 215.280,182.422 215.073,184.449 215.779 C 186.957 216.652,187.385 216.599,186.623 215.511 C 185.621 214.081,185.845 214.018,188.872 214.874 C 191.456 215.606,191.848 215.628,192.772 215.096 C 193.840 214.482,198.400 214.960,198.400 215.686 C 198.400 216.732,204.389 215.682,204.815 214.561 C 205.048 213.946,205.697 213.497,206.764 213.210 C 208.122 212.844,209.600 211.901,209.600 211.401 C 209.600 210.487,206.564 209.954,201.800 210.031 C 197.813 210.096,196.040 209.951,194.200 209.411 C 190.515 208.328,181.249 207.377,180.281 207.981 C 179.725 208.329,179.383 208.343,179.073 208.033 C 178.415 207.375,176.000 207.484,176.000 208.171 C 176.000 208.988,174.877 210.000,173.971 210.000 C 173.547 210.000,173.200 209.730,173.200 209.400 C 173.200 209.070,172.930 208.800,172.600 208.800 C 171.847 208.800,171.842 208.860,172.810 206.671 C 173.924 204.152,175.674 202.962,178.015 203.131 C 179.167 203.213,180.630 202.957,182.015 202.431 C 184.162 201.615,187.969 201.335,189.896 201.851 C 191.500 202.281,190.410 202.800,187.876 202.813 C 186.262 202.821,185.122 203.042,184.600 203.448 C 183.860 204.023,184.017 204.055,186.682 203.872 C 188.860 203.722,189.677 203.811,190.031 204.237 C 190.721 205.069,191.171 204.928,191.625 203.735 C 191.933 202.925,192.141 202.781,192.495 203.135 C 192.751 203.391,193.269 203.600,193.647 203.600 C 194.024 203.600,194.401 203.804,194.485 204.054 C 194.593 204.378,195.434 204.306,197.418 203.803 C 198.948 203.415,201.167 203.039,202.349 202.967 C 203.531 202.895,204.575 202.758,204.670 202.664 C 204.934 202.399,202.190 200.800,201.472 200.800 C 201.123 200.800,199.908 199.870,198.772 198.733 C 196.979 196.941,196.605 196.729,195.952 197.137 C 195.070 197.688,194.948 197.116,195.588 195.431 C 196.120 194.032,194.429 192.410,192.404 192.377 C 187.127 192.290,185.502 191.325,184.272 187.544 C 183.912 186.437,188.347 185.535,191.076 186.161 C 192.230 186.425,193.542 187.902,194.396 189.897 C 194.685 190.574,200.823 186.537,203.070 184.191 C 204.014 183.206,205.040 182.400,205.350 182.400 C 205.661 182.400,206.024 182.115,206.157 181.767 C 206.482 180.920,206.489 180.947,205.760 180.217 C 205.329 179.786,205.246 179.418,205.506 179.089 C 206.689 177.587,206.428 174.198,204.941 171.769 C 203.507 169.426,203.490 169.346,203.399 164.600 C 203.348 161.960,203.101 158.480,202.850 156.867 C 202.599 155.254,202.481 153.793,202.587 153.621 C 202.693 153.449,202.573 152.320,202.320 151.111 C 201.879 149.011,201.911 148.820,203.038 146.757 C 203.687 145.571,204.224 144.420,204.232 144.200 C 204.261 143.351,205.183 141.656,205.896 141.140 C 207.178 140.212,206.671 137.067,205.163 136.588 C 204.743 136.455,204.400 136.161,204.400 135.935 C 204.400 133.860,202.121 132.788,200.709 134.200 L 199.709 135.201 198.654 134.371 C 198.074 133.915,197.603 133.240,197.606 132.871 C 197.610 132.446,197.720 132.364,197.906 132.646 C 198.311 133.261,199.885 133.710,200.147 133.286 C 200.733 132.337,197.567 127.726,196.698 128.263 C 196.455 128.413,196.458 128.592,196.707 128.750 C 197.274 129.111,197.755 131.600,197.259 131.600 C 197.036 131.600,196.740 131.240,196.600 130.800 C 196.460 130.360,196.088 130.000,195.773 130.000 C 195.458 130.000,195.200 129.820,195.200 129.600 C 195.200 129.380,195.380 129.200,195.600 129.200 C 196.143 129.200,196.106 127.469,195.536 126.219 C 195.218 125.521,194.755 125.200,194.067 125.200 C 193.515 125.200,192.755 124.921,192.378 124.580 C 192.001 124.239,190.773 123.892,189.649 123.808 C 188.525 123.724,187.209 123.530,186.724 123.376 C 186.239 123.222,184.834 123.074,183.602 123.048 L 181.361 123.000 181.459 124.234 M176.811 123.585 C 176.303 123.906,176.312 123.991,176.877 124.208 C 177.855 124.583,179.715 124.271,179.902 123.700 C 180.099 123.102,177.715 123.013,176.811 123.585 M193.919 126.102 C 194.148 126.378,194.469 127.143,194.632 127.802 L 194.929 129.000 193.865 127.742 C 192.793 126.476,192.501 125.600,193.151 125.600 C 193.344 125.600,193.690 125.826,193.919 126.102 M157.808 131.987 C 157.573 132.368,159.643 134.000,160.362 134.000 C 161.015 134.000,160.892 133.403,160.100 132.723 C 159.148 131.906,158.072 131.560,157.808 131.987 M165.300 133.482 C 163.808 133.770,164.288 134.300,166.000 134.255 C 167.655 134.212,168.068 133.865,166.967 133.443 C 166.619 133.309,166.304 133.225,166.267 133.254 C 166.230 133.284,165.795 133.387,165.300 133.482 M154.400 134.968 C 154.400 136.208,155.967 137.540,157.075 137.243 C 158.783 136.786,158.579 136.181,156.414 135.281 C 154.913 134.658,154.400 134.578,154.400 134.968 M171.806 138.800 C 172.327 138.800,172.865 138.618,173.003 138.395 C 173.268 137.966,177.600 137.994,177.600 138.424 C 177.600 138.563,179.731 138.792,182.335 138.932 C 186.921 139.178,190.000 139.934,190.000 140.814 C 190.000 141.036,190.495 141.436,191.100 141.704 C 193.495 142.764,193.794 144.929,192.174 149.466 C 191.557 151.195,191.501 151.921,191.831 153.918 L 192.226 156.304 191.270 155.678 C 190.279 155.028,188.834 156.098,188.809 157.500 C 188.804 157.775,188.350 158.000,187.800 158.000 C 186.592 158.000,186.530 158.432,187.600 159.400 C 188.763 160.453,188.640 161.929,187.348 162.420 C 186.769 162.640,185.796 163.175,185.186 163.610 C 184.576 164.044,183.564 164.402,182.938 164.404 C 182.312 164.407,180.990 164.639,180.000 164.921 C 176.777 165.839,175.043 165.597,174.795 164.196 C 174.649 163.375,174.481 163.163,174.256 163.519 C 174.002 163.922,173.800 163.932,173.359 163.566 C 172.941 163.219,172.906 162.955,173.225 162.570 C 173.563 162.163,173.231 161.853,171.730 161.172 C 170.668 160.691,169.689 160.124,169.554 159.913 C 169.419 159.701,168.879 159.314,168.354 159.053 C 167.829 158.793,167.190 157.954,166.933 157.190 C 166.654 156.359,166.251 155.861,165.933 155.952 C 162.713 156.868,160.409 156.279,161.228 154.748 C 161.821 153.639,161.673 153.123,160.837 153.388 C 159.185 153.912,158.428 150.076,159.959 148.940 C 160.459 148.569,160.490 148.300,160.120 147.540 C 159.359 145.977,159.103 143.200,159.720 143.200 C 160.011 143.200,160.628 142.688,161.090 142.063 C 162.167 140.607,165.972 138.800,167.962 138.800 C 168.908 138.800,169.714 138.544,170.051 138.138 C 170.562 137.521,170.609 137.521,170.729 138.138 C 170.806 138.531,171.243 138.800,171.806 138.800 M168.903 145.506 C 165.715 147.561,166.774 148.807,170.645 147.556 C 172.749 146.876,173.488 146.787,174.060 147.144 C 174.851 147.639,178.390 147.693,180.000 147.236 C 181.112 146.920,179.464 146.400,177.350 146.400 C 176.828 146.400,176.400 146.171,176.400 145.891 C 176.400 145.398,173.010 144.393,171.388 144.406 C 170.955 144.410,169.836 144.905,168.903 145.506 M165.800 145.600 C 165.936 145.820,166.397 146.000,166.824 146.000 C 167.251 146.000,167.600 145.820,167.600 145.600 C 167.600 145.380,167.139 145.200,166.576 145.200 C 165.996 145.200,165.660 145.373,165.800 145.600 M160.800 146.400 C 160.800 146.620,161.160 146.800,161.600 146.800 C 162.040 146.800,162.400 146.620,162.400 146.400 C 162.400 146.180,162.040 146.000,161.600 146.000 C 161.160 146.000,160.800 146.180,160.800 146.400 M171.500 148.866 C 169.349 150.031,169.632 150.331,172.700 150.139 C 178.015 149.807,179.650 149.549,179.490 149.070 C 179.094 147.881,173.578 147.740,171.500 148.866 M219.290 151.671 C 219.599 152.596,220.791 153.049,221.205 152.400 C 221.827 151.425,221.669 151.200,220.367 151.200 C 219.598 151.200,219.192 151.377,219.290 151.671 M171.000 152.780 C 168.919 153.628,167.838 156.206,169.326 156.772 C 169.865 156.977,170.699 157.697,171.180 158.372 C 172.138 159.717,172.800 159.957,172.800 158.959 C 172.800 158.407,173.287 158.344,176.358 158.499 C 179.788 158.672,181.460 158.345,180.995 157.592 C 180.873 157.394,179.654 157.327,178.286 157.442 C 175.017 157.718,173.611 156.910,173.002 154.407 C 172.543 152.523,172.238 152.275,171.000 152.780 M180.879 155.386 C 180.605 155.987,180.577 156.462,180.807 156.604 C 181.436 156.993,182.800 156.023,182.800 155.186 C 182.800 154.047,181.424 154.190,180.879 155.386 M246.800 155.533 C 246.800 155.937,246.686 156.380,246.547 156.520 C 246.408 156.659,246.261 158.296,246.220 160.157 C 246.177 162.124,245.941 163.789,245.658 164.130 C 245.390 164.453,245.003 166.041,244.798 167.659 C 243.981 174.123,243.788 174.312,239.975 172.387 C 235.492 170.124,228.096 168.474,227.410 169.583 C 227.301 169.760,226.391 169.730,225.388 169.517 C 224.386 169.303,223.258 169.261,222.883 169.423 C 222.507 169.586,221.795 169.679,221.300 169.631 C 220.711 169.573,220.400 169.760,220.400 170.171 C 220.400 170.517,220.068 170.800,219.661 170.800 C 218.812 170.800,217.200 169.525,217.200 168.853 C 217.200 168.604,216.763 168.400,216.229 168.400 C 215.218 168.400,214.288 167.685,213.583 166.369 C 213.357 165.946,212.908 165.600,212.586 165.600 C 212.264 165.600,212.000 165.234,212.000 164.787 C 212.000 163.700,210.897 163.332,210.082 164.147 C 209.543 164.686,209.505 165.014,209.871 165.982 C 210.183 166.809,210.189 167.204,209.890 167.303 C 209.362 167.479,209.459 170.990,210.021 172.039 C 210.248 172.463,210.393 173.032,210.343 173.305 C 210.054 174.905,212.475 182.732,214.418 186.478 C 215.068 187.731,215.600 189.013,215.600 189.327 C 215.600 189.838,215.935 190.708,217.782 195.000 C 218.066 195.660,218.615 197.052,219.001 198.094 C 219.775 200.180,220.565 201.104,220.988 200.419 C 221.131 200.189,221.584 200.000,221.997 200.000 C 222.409 200.000,222.860 199.640,223.000 199.200 C 223.380 198.002,224.706 198.226,225.562 199.633 C 225.974 200.312,226.414 200.701,226.539 200.499 C 226.991 199.767,226.952 197.192,226.482 196.722 C 226.217 196.457,226.000 195.931,226.000 195.553 C 226.000 195.176,225.775 194.767,225.500 194.645 C 225.164 194.496,225.197 194.435,225.600 194.459 C 227.131 194.550,227.650 194.328,228.073 193.400 C 228.323 192.850,228.742 192.400,229.003 192.400 C 230.391 192.400,232.000 191.108,232.000 189.994 C 232.000 188.552,232.753 188.047,233.461 189.015 C 233.943 189.675,234.000 189.682,234.000 189.076 C 234.000 188.704,234.162 188.400,234.360 188.400 C 234.559 188.400,235.093 187.770,235.547 187.000 C 236.019 186.201,236.691 185.600,237.114 185.600 C 237.560 185.600,238.084 185.094,238.428 184.330 C 238.743 183.632,239.360 182.867,239.800 182.630 C 240.240 182.394,240.759 181.948,240.954 181.640 C 241.866 180.194,242.731 183.871,242.020 186.172 C 241.812 186.847,241.460 189.380,241.238 191.800 C 241.017 194.220,240.716 196.740,240.569 197.400 C 240.423 198.060,240.323 199.302,240.347 200.160 C 240.371 201.019,240.123 202.510,239.795 203.474 C 239.088 205.559,239.013 208.637,239.661 209.038 C 240.254 209.404,241.019 208.342,241.823 206.035 C 242.175 205.026,242.713 203.660,243.018 203.000 C 243.324 202.340,243.500 201.093,243.410 200.229 C 243.295 199.115,243.473 198.340,244.023 197.567 C 244.451 196.967,244.800 196.187,244.800 195.833 C 244.800 195.479,244.965 194.877,245.167 194.495 C 246.125 192.681,246.806 187.579,246.339 185.723 C 245.937 184.125,245.963 183.816,246.537 183.396 C 246.925 183.113,247.203 182.350,247.207 181.556 C 247.211 180.810,247.475 178.606,247.794 176.658 C 249.151 168.383,248.878 154.800,247.355 154.800 C 247.050 154.800,246.800 155.130,246.800 155.533 M215.277 157.458 C 214.575 158.040,214.000 158.737,214.000 159.006 C 214.000 159.309,213.084 159.600,211.612 159.767 C 209.062 160.055,208.440 160.484,209.215 161.418 C 209.780 162.099,211.831 162.198,212.223 161.562 C 212.409 161.263,214.084 161.198,217.547 161.359 C 222.123 161.570,222.484 161.539,221.368 161.023 C 220.156 160.462,218.390 158.474,217.883 157.100 C 217.523 156.122,216.764 156.226,215.277 157.458 M143.787 183.128 C 143.522 183.439,142.000 182.148,142.000 181.612 C 142.000 181.196,142.286 181.316,142.948 182.008 C 143.469 182.554,143.847 183.057,143.787 183.128 M208.773 183.250 C 208.216 184.291,209.884 186.284,210.965 185.869 C 211.825 185.539,211.768 183.876,210.869 183.062 C 209.890 182.177,209.320 182.228,208.773 183.250 M179.200 183.400 C 179.200 183.730,178.908 184.000,178.551 184.000 C 178.020 184.000,177.992 183.891,178.400 183.400 C 178.674 183.070,178.966 182.800,179.049 182.800 C 179.132 182.800,179.200 183.070,179.200 183.400 M177.375 185.278 C 177.104 186.133,175.547 187.677,175.252 187.384 C 174.883 187.018,175.678 185.200,176.208 185.200 C 176.533 185.200,176.800 185.020,176.800 184.800 C 176.800 184.580,176.992 184.400,177.227 184.400 C 177.484 184.400,177.543 184.748,177.375 185.278 M252.876 192.297 C 252.949 192.679,253.321 193.051,253.703 193.124 C 254.181 193.217,254.326 193.072,254.168 192.660 C 253.821 191.757,252.711 191.445,252.876 192.297 M152.000 253.600 C 152.000 253.820,151.640 254.000,151.200 254.000 C 150.756 254.000,150.400 254.267,150.400 254.600 C 150.400 254.942,150.760 255.200,151.237 255.200 C 152.180 255.200,154.109 253.843,153.720 253.453 C 153.315 253.049,152.000 253.161,152.000 253.600 M145.455 257.400 C 145.160 258.170,146.014 258.177,147.024 257.413 C 147.770 256.848,147.759 256.825,146.743 256.813 C 146.161 256.806,145.582 257.070,145.455 257.400 M127.800 264.400 C 127.936 264.620,128.307 264.800,128.624 264.800 C 128.941 264.800,129.200 264.620,129.200 264.400 C 129.200 264.180,128.829 264.000,128.376 264.000 C 127.923 264.000,127.664 264.180,127.800 264.400 " stroke="none" fill="#eeeeee" fill-rule="evenodd"></path><path id="path1" d="M200.322 57.633 C 200.243 57.872,199.329 58.067,198.292 58.067 C 197.255 58.067,196.304 58.232,196.179 58.433 C 196.055 58.635,195.063 58.800,193.976 58.800 C 192.889 58.800,192.000 58.980,192.000 59.200 C 192.000 59.420,191.640 59.600,191.200 59.600 C 189.991 59.600,190.241 60.329,191.500 60.473 C 192.349 60.571,192.569 60.782,192.462 61.400 C 192.255 62.602,192.174 62.604,189.970 61.460 C 187.513 60.185,187.621 60.196,187.902 61.267 C 188.093 61.998,188.008 62.085,187.364 61.820 C 186.944 61.647,186.383 61.496,186.118 61.486 C 185.852 61.475,185.720 61.329,185.824 61.161 C 185.928 60.993,185.830 60.742,185.607 60.604 C 185.383 60.466,185.200 60.565,185.200 60.825 C 185.200 61.175,185.061 61.182,184.663 60.852 C 184.368 60.607,184.008 60.525,183.863 60.670 C 183.638 60.895,183.436 59.951,183.537 59.147 C 183.618 58.497,182.136 59.119,181.126 60.159 C 179.839 61.484,179.823 61.518,180.500 61.493 C 182.094 61.433,182.451 61.630,182.328 62.500 C 182.189 63.480,178.829 64.018,177.649 63.249 C 176.875 62.745,177.457 62.000,178.624 62.000 C 179.337 62.000,179.600 61.782,179.600 61.190 C 179.600 60.339,175.466 60.047,174.962 60.862 C 174.847 61.048,174.144 61.200,173.400 61.200 C 172.656 61.200,171.936 61.380,171.800 61.600 C 171.664 61.820,171.243 62.000,170.865 62.000 C 170.019 62.000,168.473 63.691,169.122 63.907 C 169.448 64.016,169.439 64.269,169.089 64.829 C 168.709 65.437,168.719 65.778,169.133 66.442 C 169.422 66.905,169.466 67.164,169.230 67.018 C 168.993 66.872,168.800 66.912,168.800 67.107 C 168.800 67.302,168.260 67.382,167.600 67.285 C 166.437 67.115,166.400 67.159,166.400 68.712 C 166.400 70.320,165.489 71.330,165.056 70.202 C 164.888 69.763,164.648 69.747,163.857 70.120 C 163.313 70.377,162.977 70.770,163.111 70.993 C 163.244 71.217,163.060 71.162,162.702 70.872 C 161.933 70.249,160.005 70.471,158.788 71.324 L 157.930 71.924 158.765 72.189 C 159.224 72.335,159.600 72.601,159.600 72.782 C 159.600 73.233,157.080 73.589,156.659 73.196 C 156.305 72.866,152.800 76.161,152.800 76.824 C 152.800 77.031,152.440 77.200,152.000 77.200 C 151.467 77.200,151.200 77.467,151.200 78.000 C 151.200 78.589,150.933 78.800,150.187 78.800 C 149.631 78.800,149.072 79.069,148.946 79.398 C 148.819 79.726,148.600 79.932,148.458 79.854 C 148.007 79.608,143.750 84.250,143.931 84.792 C 144.026 85.077,143.818 85.470,143.468 85.666 C 143.117 85.863,142.937 86.291,143.065 86.625 C 143.193 86.958,142.991 87.568,142.617 87.982 C 141.575 89.132,142.413 90.400,144.214 90.400 C 144.976 90.400,145.600 90.201,145.600 89.957 C 145.600 89.711,145.891 89.626,146.256 89.766 C 147.617 90.288,150.342 88.306,149.218 87.611 C 148.470 87.149,149.634 82.800,150.506 82.800 C 150.948 82.800,151.136 82.980,150.972 83.245 C 150.821 83.489,150.946 83.847,151.249 84.039 C 152.187 84.633,152.497 84.440,152.242 83.424 C 151.944 82.239,153.188 81.200,154.902 81.200 C 156.050 81.200,156.984 82.405,156.072 82.709 C 155.812 82.796,155.600 83.122,155.600 83.433 C 155.600 83.745,155.432 84.000,155.227 84.000 C 155.022 84.000,154.748 84.335,154.618 84.745 C 154.487 85.155,153.821 85.650,153.137 85.846 C 152.332 86.077,151.635 86.685,151.161 87.569 C 150.758 88.321,150.273 89.040,150.084 89.168 C 149.683 89.438,148.569 91.464,148.227 92.545 C 148.051 93.098,147.858 93.180,147.479 92.865 C 147.101 92.552,146.839 92.645,146.480 93.220 C 146.062 93.890,146.100 94.000,146.750 94.000 C 147.746 94.000,148.021 95.187,147.380 96.712 C 146.799 98.094,145.735 98.800,144.232 98.800 C 143.473 98.800,143.053 99.134,142.595 100.100 C 142.256 100.815,141.706 101.850,141.373 102.400 L 140.768 103.400 140.941 102.150 C 141.095 101.037,141.005 100.900,140.115 100.900 C 139.403 100.900,139.271 100.999,139.657 101.244 C 140.150 101.556,139.858 101.767,139.100 101.647 C 138.608 101.570,138.761 103.928,139.268 104.242 C 139.585 104.438,139.651 104.311,139.473 103.845 C 139.316 103.437,139.370 103.258,139.605 103.403 C 139.822 103.537,140.000 103.427,140.000 103.157 C 140.000 102.887,140.114 102.781,140.254 102.921 C 140.394 103.061,140.214 103.624,139.854 104.173 C 139.494 104.723,139.205 105.493,139.212 105.886 C 139.223 106.527,139.272 106.518,139.685 105.805 C 140.476 104.441,140.927 104.135,141.879 104.317 C 142.591 104.453,142.800 104.313,142.800 103.696 C 142.800 103.257,143.070 102.674,143.400 102.400 C 144.539 101.455,144.075 103.310,142.800 104.800 C 142.141 105.570,141.601 106.521,141.601 106.914 C 141.600 107.930,140.419 109.600,139.702 109.600 C 139.235 109.600,139.146 109.286,139.316 108.238 C 139.492 107.153,139.392 106.839,138.822 106.690 C 138.341 106.564,138.121 106.716,138.153 107.151 C 138.181 107.538,137.837 107.851,137.300 107.928 C 136.722 108.010,136.400 108.332,136.400 108.828 C 136.400 109.253,136.245 109.600,136.055 109.600 C 135.865 109.600,135.741 110.005,135.780 110.500 C 135.819 110.995,135.689 111.732,135.491 112.138 C 135.223 112.688,135.351 113.082,135.993 113.679 C 136.468 114.122,136.752 114.747,136.627 115.074 C 136.502 115.399,136.400 116.831,136.400 118.256 C 136.400 119.882,136.251 120.755,136.000 120.600 C 135.757 120.450,135.600 121.036,135.600 122.096 C 135.600 123.055,135.437 124.011,135.237 124.220 C 134.432 125.062,133.653 138.213,134.365 138.925 C 134.604 139.164,134.800 139.864,134.800 140.480 C 134.800 141.096,134.980 141.600,135.200 141.600 C 135.420 141.600,135.600 141.870,135.600 142.200 C 135.600 142.530,135.780 142.800,136.000 142.800 C 136.220 142.800,136.400 143.340,136.400 144.000 C 136.400 144.660,136.580 145.200,136.800 145.200 C 137.025 145.200,137.221 146.465,137.248 148.100 C 137.296 150.975,137.299 150.985,137.678 149.200 C 138.316 146.192,139.587 144.790,139.613 147.067 C 139.630 148.570,140.098 149.086,143.355 151.188 C 146.269 153.068,147.200 154.439,147.200 156.848 C 147.200 158.102,147.189 158.109,146.500 157.318 C 142.893 153.172,141.098 151.600,139.971 151.600 C 139.080 151.600,136.408 154.353,136.403 155.276 C 136.402 155.648,136.220 156.064,136.000 156.200 C 135.780 156.336,135.600 156.876,135.600 157.400 C 135.600 157.924,135.420 158.464,135.200 158.600 C 134.980 158.736,134.800 159.197,134.800 159.624 C 134.800 160.051,134.620 160.400,134.400 160.400 C 133.967 160.400,133.834 166.301,134.243 167.367 C 134.633 168.385,135.600 168.115,135.600 166.988 C 135.600 163.763,140.891 156.400,143.208 156.400 C 143.981 156.400,145.600 157.840,145.600 158.527 C 145.600 158.734,146.230 159.600,147.000 160.453 C 148.818 162.465,148.954 164.488,147.324 165.278 C 146.732 165.565,145.877 166.456,145.424 167.257 C 144.971 168.059,144.255 169.199,143.833 169.790 C 143.288 170.553,143.056 171.580,143.033 173.332 L 143.000 175.800 144.300 175.925 C 145.015 175.994,145.600 175.874,145.600 175.658 C 145.600 175.244,148.040 173.600,148.654 173.600 C 148.852 173.600,149.024 175.279,149.036 177.331 C 149.053 180.149,149.222 181.297,149.729 182.020 L 150.400 182.978 150.388 181.589 C 150.381 180.825,150.134 177.590,149.838 174.400 C 149.289 168.473,149.411 165.411,150.771 151.000 C 151.833 139.747,152.935 137.628,157.141 138.753 C 158.750 139.184,159.000 139.152,159.785 138.414 C 160.262 137.966,161.124 137.600,161.702 137.600 C 162.280 137.600,162.864 137.420,163.000 137.200 C 163.136 136.980,163.665 136.800,164.175 136.800 C 164.685 136.800,165.731 136.537,166.500 136.216 C 167.269 135.895,168.001 135.735,168.128 135.861 C 168.254 135.987,169.208 135.800,170.250 135.445 C 171.291 135.090,172.714 134.800,173.412 134.800 C 174.724 134.800,176.518 134.312,178.606 133.386 C 179.269 133.092,180.304 132.665,180.906 132.436 C 182.563 131.806,182.252 131.219,180.500 131.670 C 179.675 131.882,178.550 132.157,178.000 132.282 C 177.450 132.406,176.816 132.651,176.592 132.827 C 175.797 133.448,169.908 133.193,170.433 132.561 C 170.703 132.235,171.637 132.000,172.665 132.000 C 174.446 132.000,176.800 130.754,176.800 129.812 C 176.800 129.572,177.655 129.139,178.700 128.852 C 179.745 128.564,180.825 128.260,181.100 128.177 C 181.545 128.042,181.815 126.836,181.625 125.834 C 181.587 125.632,181.512 124.912,181.459 124.234 L 181.361 123.000 183.602 123.048 C 184.834 123.074,186.239 123.222,186.724 123.376 C 187.209 123.530,188.525 123.724,189.649 123.808 C 190.773 123.892,192.001 124.239,192.378 124.580 C 192.755 124.921,193.515 125.200,194.067 125.200 C 194.755 125.200,195.218 125.521,195.536 126.219 C 196.106 127.469,196.143 129.200,195.600 129.200 C 195.380 129.200,195.200 129.380,195.200 129.600 C 195.200 129.820,195.458 130.000,195.773 130.000 C 196.088 130.000,196.460 130.360,196.600 130.800 C 196.740 131.240,197.036 131.600,197.259 131.600 C 197.755 131.600,197.274 129.111,196.707 128.750 C 196.458 128.592,196.455 128.413,196.698 128.263 C 197.567 127.726,200.733 132.337,200.147 133.286 C 199.885 133.710,198.311 133.261,197.906 132.646 C 197.720 132.364,197.610 132.446,197.606 132.871 C 197.603 133.240,198.074 133.915,198.654 134.371 L 199.709 135.201 200.709 134.200 C 202.121 132.788,204.400 133.860,204.400 135.935 C 204.400 136.161,204.743 136.455,205.163 136.588 C 206.671 137.067,207.178 140.212,205.896 141.140 C 205.183 141.656,204.261 143.351,204.232 144.200 C 204.224 144.420,203.687 145.571,203.038 146.757 C 201.911 148.820,201.879 149.011,202.320 151.111 C 202.573 152.320,202.693 153.449,202.587 153.621 C 202.481 153.793,202.599 155.254,202.850 156.867 C 203.101 158.480,203.348 161.960,203.399 164.600 C 203.490 169.346,203.507 169.426,204.941 171.769 C 206.428 174.198,206.689 177.587,205.506 179.089 C 205.246 179.419,205.336 179.793,205.783 180.240 C 206.148 180.605,206.346 181.165,206.223 181.484 C 206.100 181.804,206.000 182.141,206.000 182.233 C 206.000 182.325,205.727 182.400,205.393 182.400 C 205.060 182.400,204.014 183.206,203.070 184.191 C 200.823 186.537,194.685 190.574,194.396 189.897 C 193.542 187.902,192.230 186.425,191.076 186.161 C 188.347 185.535,183.912 186.437,184.272 187.544 C 185.502 191.325,187.127 192.290,192.404 192.377 C 194.429 192.410,196.120 194.032,195.588 195.431 C 194.948 197.116,195.070 197.688,195.952 197.137 C 196.605 196.729,196.979 196.941,198.772 198.733 C 199.908 199.870,201.123 200.800,201.472 200.800 C 202.190 200.800,204.934 202.399,204.670 202.664 C 204.575 202.758,203.531 202.895,202.349 202.967 C 201.167 203.039,198.948 203.415,197.418 203.803 C 195.434 204.306,194.593 204.378,194.485 204.054 C 194.401 203.804,194.024 203.600,193.647 203.600 C 193.269 203.600,192.751 203.391,192.495 203.135 C 192.141 202.781,191.933 202.925,191.625 203.735 C 191.171 204.928,190.721 205.069,190.031 204.237 C 189.677 203.811,188.860 203.722,186.682 203.872 C 184.017 204.055,183.860 204.023,184.600 203.448 C 185.122 203.042,186.262 202.821,187.876 202.813 C 190.410 202.800,191.500 202.281,189.896 201.851 C 187.969 201.335,184.162 201.615,182.015 202.431 C 180.630 202.957,179.167 203.213,178.015 203.131 C 175.674 202.962,173.924 204.152,172.810 206.671 C 171.842 208.860,171.847 208.800,172.600 208.800 C 172.930 208.800,173.200 209.070,173.200 209.400 C 173.200 209.730,173.547 210.000,173.971 210.000 C 174.877 210.000,176.000 208.988,176.000 208.171 C 176.000 207.484,178.415 207.375,179.073 208.033 C 179.383 208.343,179.725 208.329,180.281 207.981 C 181.249 207.377,190.515 208.328,194.200 209.411 C 196.040 209.951,197.813 210.096,201.800 210.031 C 206.564 209.954,209.600 210.487,209.600 211.401 C 209.600 211.901,208.122 212.844,206.764 213.210 C 205.697 213.497,205.048 213.946,204.815 214.561 C 204.389 215.682,198.400 216.732,198.400 215.686 C 198.400 214.960,193.840 214.482,192.772 215.096 C 191.848 215.628,191.456 215.606,188.872 214.874 C 185.845 214.018,185.621 214.081,186.623 215.511 C 187.385 216.599,186.957 216.652,184.449 215.779 C 182.422 215.073,181.984 215.280,182.811 216.553 C 183.135 217.053,183.747 218.004,184.170 218.666 C 185.267 220.381,189.422 222.962,193.400 224.400 C 194.752 224.889,196.873 225.949,199.800 227.599 C 201.340 228.467,203.046 229.374,203.592 229.614 C 205.373 230.397,205.410 232.042,203.657 232.501 C 202.537 232.794,201.730 232.207,202.303 231.517 C 202.614 231.142,202.628 230.791,202.347 230.387 C 202.038 229.942,201.890 229.921,201.736 230.300 C 201.355 231.239,198.400 230.930,198.400 229.951 C 198.400 229.336,198.262 229.207,197.900 229.481 C 197.194 230.016,194.308 230.800,193.045 230.800 C 192.306 230.800,191.847 231.098,191.537 231.778 C 191.001 232.955,188.594 234.003,187.088 233.715 C 186.334 233.571,185.999 233.674,185.997 234.053 C 185.992 235.217,183.615 236.101,183.209 235.091 C 183.012 234.601,182.839 234.425,182.825 234.700 C 182.782 235.547,179.285 235.325,178.109 234.400 C 177.550 233.960,176.756 233.600,176.346 233.600 C 175.936 233.600,175.600 233.319,175.600 232.976 C 175.600 232.633,175.417 232.466,175.193 232.604 C 174.970 232.742,174.891 233.024,175.019 233.230 C 175.553 234.094,173.905 234.050,172.974 233.176 C 172.214 232.462,171.881 232.359,171.515 232.725 C 170.811 233.429,169.840 233.304,168.633 232.354 C 168.042 231.889,167.449 231.618,167.316 231.751 C 167.183 231.884,166.832 231.793,166.537 231.548 C 165.785 230.923,165.839 231.954,166.613 232.976 C 166.936 233.404,167.200 233.962,167.200 234.217 C 167.200 234.728,169.936 239.063,172.239 242.200 C 173.047 243.300,174.051 244.965,174.472 245.900 C 174.893 246.835,175.365 247.600,175.521 247.600 C 175.677 247.600,176.052 248.159,176.354 248.841 C 176.656 249.524,177.690 250.869,178.652 251.831 C 179.613 252.792,180.400 253.789,180.400 254.046 C 180.400 254.302,180.850 254.982,181.401 255.556 C 182.738 256.951,184.468 259.135,185.369 260.565 C 185.773 261.206,187.193 262.736,188.525 263.965 C 192.582 267.710,194.148 269.329,196.320 272.020 C 197.465 273.439,198.807 275.017,199.301 275.526 C 202.316 278.634,204.763 280.806,205.875 281.359 C 207.497 282.167,207.890 282.806,207.052 283.275 C 205.793 283.979,204.407 285.634,204.171 286.714 C 204.040 287.311,203.849 288.063,203.747 288.385 C 203.138 290.291,204.134 295.404,205.332 296.523 C 207.162 298.233,207.462 299.121,207.383 302.606 C 207.279 307.263,204.064 313.224,203.449 309.900 C 202.762 306.191,202.400 302.682,202.400 299.745 C 202.400 296.494,202.334 296.231,201.200 294.939 C 200.540 294.187,200.000 293.305,200.000 292.979 C 200.000 292.652,199.567 291.534,199.039 290.493 C 198.510 289.452,197.772 287.880,197.398 287.000 C 195.491 282.511,195.370 282.397,191.083 281.060 C 187.185 279.845,177.366 272.333,172.938 267.177 C 172.454 266.615,171.420 265.445,170.639 264.577 C 169.858 263.710,169.214 262.797,169.209 262.549 C 169.204 262.301,168.952 261.892,168.649 261.641 C 168.020 261.118,165.064 256.121,162.574 251.367 C 160.895 248.161,160.878 248.086,160.614 242.767 C 160.372 237.880,159.920 235.600,159.194 235.600 C 158.714 235.600,157.200 237.079,157.200 237.547 C 157.200 237.796,157.020 238.000,156.800 238.000 C 156.580 238.000,156.400 238.360,156.400 238.800 C 156.400 239.240,156.220 239.600,156.000 239.600 C 155.757 239.600,155.600 241.400,155.600 244.200 C 155.600 247.000,155.443 248.800,155.200 248.800 C 154.980 248.800,154.800 249.222,154.800 249.738 C 154.800 250.800,153.670 252.000,152.669 252.000 C 152.301 252.000,152.000 252.180,152.000 252.400 C 152.000 252.620,151.640 252.800,151.200 252.800 C 150.760 252.800,150.400 252.957,150.400 253.150 C 150.400 253.343,149.882 253.604,149.248 253.730 C 148.615 253.857,147.818 254.240,147.477 254.580 C 147.136 254.921,146.394 255.200,145.829 255.200 C 145.263 255.200,144.800 255.380,144.800 255.600 C 144.800 255.820,144.540 256.000,144.221 256.000 C 143.903 256.000,142.796 256.450,141.762 257.000 C 140.727 257.550,139.638 258.000,139.340 258.000 C 139.043 258.000,138.800 258.180,138.800 258.400 C 138.800 258.620,138.440 258.800,138.000 258.800 C 137.560 258.800,137.200 258.980,137.200 259.200 C 137.200 259.420,136.660 259.600,136.000 259.600 C 135.340 259.600,134.800 259.780,134.800 260.000 C 134.800 260.220,134.271 260.400,133.624 260.400 C 132.977 260.400,132.336 260.580,132.200 260.800 C 132.064 261.020,131.643 261.200,131.265 261.200 C 130.886 261.200,130.317 261.560,130.000 262.000 C 129.661 262.470,128.965 262.800,128.312 262.800 C 127.700 262.800,127.200 262.980,127.200 263.200 C 127.200 263.420,126.761 263.600,126.224 263.600 C 125.687 263.600,125.136 263.780,125.000 264.000 C 124.864 264.220,124.313 264.400,123.776 264.400 C 123.239 264.400,122.800 264.580,122.800 264.800 C 122.800 265.020,122.361 265.200,121.824 265.200 C 121.287 265.200,120.736 265.380,120.600 265.600 C 120.464 265.820,120.003 266.000,119.576 266.000 C 119.149 266.000,118.800 266.180,118.800 266.400 C 118.800 266.620,118.453 266.800,118.029 266.800 C 117.604 266.800,116.987 267.070,116.657 267.400 C 116.327 267.730,115.594 268.000,115.029 268.000 C 114.463 268.000,114.000 268.180,114.000 268.400 C 114.000 268.620,113.550 268.800,113.000 268.800 C 112.450 268.800,112.000 268.980,112.000 269.200 C 112.000 269.420,111.460 269.600,110.800 269.600 C 110.140 269.600,109.600 269.780,109.600 270.000 C 109.600 270.220,109.060 270.400,108.400 270.400 C 107.740 270.400,107.200 270.580,107.200 270.800 C 107.200 271.020,106.660 271.200,106.000 271.200 C 105.340 271.200,104.800 271.380,104.800 271.600 C 104.800 271.820,104.170 272.000,103.400 272.000 C 102.630 272.000,102.000 272.180,102.000 272.400 C 102.000 272.620,101.460 272.800,100.800 272.800 C 100.140 272.800,99.600 272.980,99.600 273.200 C 99.600 273.420,99.161 273.600,98.624 273.600 C 98.087 273.600,97.536 273.780,97.400 274.000 C 97.264 274.220,96.803 274.400,96.376 274.400 C 95.949 274.400,95.600 274.580,95.600 274.800 C 95.600 275.020,95.071 275.200,94.424 275.200 C 93.777 275.200,93.136 275.380,93.000 275.600 C 92.864 275.820,92.403 276.000,91.976 276.000 C 91.549 276.000,91.200 276.180,91.200 276.400 C 91.200 276.620,90.853 276.800,90.429 276.800 C 90.004 276.800,89.387 277.070,89.057 277.400 C 88.727 277.730,88.174 278.000,87.829 278.000 C 87.483 278.000,87.200 278.180,87.200 278.400 C 87.200 278.620,86.932 278.800,86.605 278.800 C 86.057 278.800,85.122 279.430,83.784 280.700 C 83.494 280.975,83.014 281.200,82.717 281.200 C 82.420 281.200,81.917 281.560,81.600 282.000 C 81.283 282.440,80.743 282.800,80.400 282.800 C 80.057 282.800,79.517 283.160,79.200 283.600 C 78.883 284.040,78.380 284.400,78.083 284.400 C 77.351 284.400,76.400 285.400,76.400 286.171 C 76.400 286.517,76.220 286.800,76.000 286.800 C 75.780 286.800,75.600 286.974,75.600 287.186 C 75.600 287.593,75.074 288.224,72.182 291.289 C 71.202 292.329,70.400 293.414,70.400 293.701 C 70.400 293.988,70.040 294.483,69.600 294.800 C 69.160 295.117,68.800 295.697,68.800 296.088 C 68.800 296.480,68.620 296.800,68.400 296.800 C 68.180 296.800,68.000 297.070,68.000 297.400 C 68.000 297.730,67.820 298.000,67.600 298.000 C 67.380 298.000,67.200 298.360,67.200 298.800 C 67.200 299.240,67.020 299.600,66.800 299.600 C 66.580 299.600,66.400 299.960,66.400 300.400 C 66.400 300.840,66.220 301.200,66.000 301.200 C 65.780 301.200,65.600 301.560,65.600 302.000 C 65.600 302.440,65.452 302.800,65.270 302.800 C 64.856 302.800,62.800 307.207,62.800 308.095 C 62.800 308.457,62.620 308.864,62.400 309.000 C 62.180 309.136,62.000 309.687,62.000 310.224 C 62.000 310.761,61.820 311.200,61.600 311.200 C 61.380 311.200,61.200 311.740,61.200 312.400 C 61.200 313.060,61.020 313.600,60.800 313.600 C 60.580 313.600,60.400 314.129,60.400 314.776 C 60.400 315.423,60.220 316.064,60.000 316.200 C 59.780 316.336,59.600 316.977,59.600 317.624 C 59.600 318.271,59.420 318.800,59.200 318.800 C 58.980 318.800,58.800 319.520,58.800 320.400 C 58.800 321.280,58.620 322.000,58.400 322.000 C 58.180 322.000,58.000 322.720,58.000 323.600 C 58.000 324.480,57.820 325.200,57.600 325.200 C 57.380 325.200,57.200 325.830,57.200 326.600 C 57.200 327.370,57.020 328.000,56.800 328.000 C 56.578 328.000,56.400 329.067,56.400 330.400 C 56.400 331.733,56.222 332.800,56.000 332.800 C 55.780 332.800,55.600 333.589,55.600 334.554 C 55.600 335.519,55.331 336.824,55.002 337.454 C 54.674 338.084,54.404 339.174,54.402 339.876 C 54.401 340.578,54.220 341.264,54.000 341.400 C 53.780 341.536,53.600 342.256,53.600 343.000 C 53.600 343.744,53.420 344.464,53.200 344.600 C 52.980 344.736,52.800 345.557,52.800 346.424 C 52.800 347.291,52.620 348.000,52.400 348.000 C 52.180 348.000,52.000 348.900,52.000 350.000 C 52.000 351.100,51.820 352.000,51.600 352.000 C 51.374 352.000,51.200 353.133,51.200 354.600 C 51.200 356.067,51.026 357.200,50.800 357.200 C 50.567 357.200,50.400 358.525,50.400 360.376 C 50.400 362.123,50.220 363.664,50.000 363.800 C 49.780 363.936,49.600 365.657,49.600 367.624 C 49.600 369.741,49.437 371.200,49.200 371.200 C 48.975 371.200,48.800 372.325,48.800 373.776 C 48.800 375.193,48.620 376.464,48.400 376.600 C 48.180 376.736,48.000 378.187,48.000 379.824 C 48.000 381.541,47.831 382.800,47.600 382.800 C 47.369 382.800,47.200 384.067,47.200 385.800 C 47.200 387.533,47.031 388.800,46.800 388.800 C 46.567 388.800,46.400 390.133,46.400 392.000 C 46.400 393.867,46.233 395.200,46.000 395.200 C 45.765 395.200,45.600 396.589,45.600 398.567 C 45.600 400.780,45.440 401.987,45.132 402.089 C 44.841 402.186,44.599 403.590,44.489 405.823 C 44.392 407.790,44.152 409.571,43.956 409.780 C 43.760 409.989,43.600 411.463,43.600 413.056 C 43.600 414.649,43.420 416.064,43.200 416.200 C 42.980 416.336,42.800 417.877,42.800 419.624 C 42.800 421.475,42.633 422.800,42.400 422.800 C 42.160 422.800,42.000 424.392,42.000 426.776 C 42.000 428.996,41.823 430.862,41.600 431.000 C 41.380 431.136,41.200 431.687,41.200 432.224 L 41.200 433.200 70.000 433.200 L 98.800 433.200 98.800 432.267 C 98.800 431.753,98.911 431.222,99.048 431.086 C 99.403 430.731,100.400 431.826,100.400 432.571 C 100.400 433.142,112.412 433.200,229.600 433.200 L 358.800 433.200 358.800 430.600 C 358.800 429.133,358.626 428.000,358.400 428.000 C 358.163 428.000,358.000 426.541,358.000 424.424 C 358.000 422.457,357.820 420.736,357.600 420.600 C 357.380 420.464,357.200 419.013,357.200 417.376 C 357.200 415.739,357.033 414.400,356.829 414.400 C 356.626 414.400,356.360 412.915,356.240 411.100 C 355.797 404.421,355.561 402.182,355.216 401.400 C 355.021 400.960,354.765 399.252,354.646 397.605 C 354.528 395.958,354.244 394.548,354.015 394.472 C 353.772 394.391,353.600 392.938,353.600 390.967 C 353.600 388.989,353.435 387.600,353.200 387.600 C 352.967 387.600,352.800 386.267,352.800 384.400 C 352.800 382.533,352.633 381.200,352.400 381.200 C 352.163 381.200,352.000 379.741,352.000 377.624 C 352.000 375.657,351.820 373.936,351.600 373.800 C 351.380 373.664,351.200 371.954,351.200 370.000 C 351.200 368.046,351.020 366.336,350.800 366.200 C 350.565 366.055,350.400 363.729,350.400 360.576 C 350.400 357.259,350.247 355.200,350.000 355.200 C 349.763 355.200,349.600 353.733,349.600 351.600 C 349.600 349.467,349.437 348.000,349.200 348.000 C 348.969 348.000,348.800 346.733,348.800 345.000 C 348.800 343.267,348.631 342.000,348.400 342.000 C 348.180 342.000,348.000 341.100,348.000 340.000 C 348.000 338.900,347.820 338.000,347.600 338.000 C 347.380 338.000,347.200 337.111,347.200 336.024 C 347.200 334.937,347.020 333.936,346.800 333.800 C 346.580 333.664,346.400 332.843,346.400 331.976 C 346.400 331.109,346.220 330.400,346.000 330.400 C 345.780 330.400,345.600 329.511,345.600 328.424 C 345.600 327.337,345.420 326.336,345.200 326.200 C 344.980 326.064,344.800 325.436,344.800 324.805 C 344.800 324.174,344.530 323.387,344.200 323.057 C 343.870 322.727,343.600 321.814,343.600 321.029 C 343.600 320.243,343.420 319.600,343.200 319.600 C 342.980 319.600,342.800 318.891,342.800 318.024 C 342.800 317.157,342.620 316.336,342.400 316.200 C 342.180 316.064,342.000 315.423,342.000 314.776 C 342.000 314.129,341.820 313.600,341.600 313.600 C 341.380 313.600,341.200 312.880,341.200 312.000 C 341.200 311.120,341.020 310.400,340.800 310.400 C 340.580 310.400,340.400 309.680,340.400 308.800 C 340.400 307.920,340.220 307.200,340.000 307.200 C 339.780 307.200,339.600 306.750,339.600 306.200 C 339.600 305.650,339.420 305.200,339.200 305.200 C 338.980 305.200,338.800 304.660,338.800 304.000 C 338.800 303.340,338.620 302.800,338.400 302.800 C 338.180 302.800,338.000 302.440,338.000 302.000 C 338.000 301.560,337.820 301.200,337.600 301.200 C 337.380 301.200,337.200 300.840,337.200 300.400 C 337.200 299.960,337.020 299.600,336.800 299.600 C 336.580 299.600,336.400 299.240,336.400 298.800 C 336.400 298.360,336.220 298.000,336.000 298.000 C 335.780 298.000,335.600 297.662,335.600 297.249 C 335.600 296.836,335.330 296.274,335.000 296.000 C 334.670 295.726,334.400 295.254,334.400 294.951 C 334.400 294.648,334.250 294.400,334.068 294.400 C 333.885 294.400,333.481 293.905,333.170 293.300 C 332.860 292.695,332.289 291.909,331.903 291.553 C 331.516 291.197,331.200 290.652,331.200 290.341 C 331.200 290.031,330.840 289.517,330.400 289.200 C 329.960 288.883,329.600 288.321,329.600 287.952 C 329.600 287.018,323.700 281.200,322.754 281.200 C 322.516 281.200,321.817 280.660,321.200 280.000 C 320.583 279.340,319.873 278.800,319.621 278.800 C 319.370 278.800,318.727 278.364,318.194 277.830 C 317.661 277.297,316.589 276.631,315.812 276.350 C 315.035 276.069,314.400 275.695,314.400 275.520 C 314.400 275.344,313.961 275.200,313.424 275.200 C 312.887 275.200,312.336 275.020,312.200 274.800 C 312.064 274.580,311.423 274.400,310.776 274.400 C 310.129 274.400,309.600 274.220,309.600 274.000 C 309.600 273.780,309.060 273.600,308.400 273.600 C 307.740 273.600,307.200 273.420,307.200 273.200 C 307.200 272.980,306.570 272.800,305.800 272.800 C 305.030 272.800,304.400 272.620,304.400 272.400 C 304.400 272.180,303.860 272.000,303.200 272.000 C 302.540 272.000,302.000 271.820,302.000 271.600 C 302.000 271.380,301.280 271.200,300.400 271.200 C 299.520 271.200,298.800 271.020,298.800 270.800 C 298.800 270.580,298.260 270.400,297.600 270.400 C 296.940 270.400,296.400 270.220,296.400 270.000 C 296.400 269.780,295.770 269.600,295.000 269.600 C 294.230 269.600,293.600 269.420,293.600 269.200 C 293.600 268.980,292.981 268.800,292.224 268.800 C 291.467 268.800,290.736 268.620,290.600 268.400 C 290.464 268.180,289.823 268.000,289.176 268.000 C 288.529 268.000,288.000 267.857,288.000 267.682 C 288.000 267.311,283.934 266.000,282.784 266.000 C 282.353 266.000,282.000 265.820,282.000 265.600 C 282.000 265.380,281.460 265.200,280.800 265.200 C 280.140 265.200,279.600 265.020,279.600 264.800 C 279.600 264.580,279.071 264.400,278.424 264.400 C 277.777 264.400,277.136 264.220,277.000 264.000 C 276.864 263.780,276.223 263.600,275.576 263.600 C 274.929 263.600,274.400 263.420,274.400 263.200 C 274.400 262.980,273.860 262.800,273.200 262.800 C 272.540 262.800,272.000 262.620,272.000 262.400 C 272.000 262.180,271.460 262.000,270.800 262.000 C 270.140 262.000,269.600 261.820,269.600 261.600 C 269.600 261.380,269.060 261.200,268.400 261.200 C 267.740 261.200,267.200 261.020,267.200 260.800 C 267.200 260.580,266.570 260.400,265.800 260.400 C 265.030 260.400,264.400 260.220,264.400 260.000 C 264.400 259.780,263.860 259.600,263.200 259.600 C 262.540 259.600,262.000 259.420,262.000 259.200 C 262.000 258.980,261.640 258.800,261.200 258.800 C 260.760 258.800,260.400 258.620,260.400 258.400 C 260.400 258.180,259.879 258.000,259.243 258.000 C 258.583 258.000,257.987 257.742,257.855 257.400 C 257.729 257.070,257.257 256.800,256.807 256.800 C 256.357 256.800,255.632 256.620,255.195 256.400 C 254.758 256.180,254.042 255.820,253.605 255.600 C 253.168 255.380,252.459 255.200,252.029 255.200 C 251.599 255.200,251.136 255.020,251.000 254.800 C 250.864 254.580,250.313 254.400,249.776 254.400 C 249.239 254.400,248.800 254.220,248.800 254.000 C 248.800 253.780,248.260 253.600,247.600 253.600 L 246.400 253.600 246.400 247.800 C 246.400 244.479,246.241 242.000,246.027 242.000 C 245.822 242.000,245.540 241.640,245.400 241.200 C 245.260 240.760,244.870 240.400,244.534 240.400 C 244.197 240.400,243.417 239.860,242.800 239.200 C 242.183 238.540,241.391 238.000,241.040 238.000 C 240.688 238.000,240.400 237.807,240.400 237.571 C 240.400 236.934,239.347 236.000,238.629 236.000 C 238.283 236.000,238.000 235.859,238.000 235.686 C 238.000 235.514,237.443 235.043,236.762 234.641 C 235.605 233.958,235.542 233.802,235.793 232.255 C 235.941 231.345,236.150 228.890,236.257 226.800 C 236.365 224.710,236.621 222.829,236.827 222.620 C 237.032 222.411,237.200 221.826,237.200 221.320 C 237.200 220.814,237.380 220.400,237.600 220.400 C 237.820 220.400,238.000 220.040,238.000 219.600 C 238.000 219.160,238.180 218.800,238.400 218.800 C 238.620 218.800,238.800 218.440,238.800 218.000 C 238.800 217.560,238.980 217.200,239.200 217.200 C 239.420 217.200,239.600 216.750,239.600 216.200 C 239.600 215.650,239.780 215.200,240.000 215.200 C 240.220 215.200,240.400 214.840,240.400 214.400 C 240.400 213.960,240.580 213.600,240.800 213.600 C 241.020 213.600,241.200 213.161,241.200 212.624 C 241.200 212.087,241.380 211.536,241.600 211.400 C 241.820 211.264,242.000 210.803,242.000 210.376 C 242.000 209.949,242.180 209.600,242.400 209.600 C 242.620 209.600,242.800 209.071,242.800 208.424 C 242.800 207.777,242.980 207.136,243.200 207.000 C 243.420 206.864,243.600 206.043,243.600 205.176 C 243.600 204.309,243.780 203.600,244.000 203.600 C 244.220 203.600,244.400 203.241,244.400 202.803 C 244.400 200.265,246.852 197.667,247.800 199.200 C 247.936 199.420,248.397 199.600,248.824 199.600 C 249.251 199.600,249.600 199.420,249.600 199.200 C 249.600 198.980,250.058 198.800,250.618 198.800 C 251.841 198.800,253.600 197.159,253.600 196.018 C 253.600 195.568,253.780 195.200,254.000 195.200 C 254.220 195.200,254.400 194.840,254.400 194.400 C 254.400 193.960,254.542 193.600,254.717 193.600 C 254.891 193.600,255.312 193.015,255.653 192.300 C 255.994 191.585,256.841 189.947,257.536 188.659 C 258.231 187.372,258.800 186.067,258.800 185.759 C 258.800 185.452,258.980 185.200,259.200 185.200 C 259.420 185.200,259.600 184.840,259.600 184.400 C 259.600 183.960,259.780 183.600,260.000 183.600 C 260.220 183.600,260.400 183.251,260.400 182.824 C 260.400 182.397,260.580 181.936,260.800 181.800 C 261.020 181.664,261.200 181.113,261.200 180.576 C 261.200 180.039,261.380 179.600,261.600 179.600 C 261.820 179.600,262.000 179.240,262.000 178.800 C 262.000 178.360,262.180 178.000,262.400 178.000 C 262.620 178.000,262.800 177.550,262.800 177.000 C 262.800 176.450,262.980 176.000,263.200 176.000 C 263.420 176.000,263.600 175.295,263.600 174.433 C 263.600 173.536,263.813 172.796,264.100 172.700 C 264.470 172.577,264.600 170.991,264.600 166.600 C 264.600 162.209,264.470 160.623,264.100 160.500 C 263.825 160.408,263.600 159.808,263.600 159.167 C 263.600 158.525,263.420 158.000,263.200 158.000 C 262.980 158.000,262.800 157.622,262.800 157.160 C 262.800 156.699,262.260 155.817,261.600 155.200 C 260.940 154.583,260.400 153.791,260.400 153.440 C 260.400 153.088,260.220 152.800,260.000 152.800 C 259.780 152.800,259.600 151.911,259.600 150.824 C 259.600 149.737,259.780 148.736,260.000 148.600 C 260.220 148.464,260.400 147.463,260.400 146.376 C 260.400 145.289,260.580 144.400,260.800 144.400 C 261.020 144.400,261.200 143.691,261.200 142.824 C 261.200 141.957,261.380 141.136,261.600 141.000 C 261.820 140.864,262.000 140.043,262.000 139.176 C 262.000 138.309,262.180 137.600,262.400 137.600 C 262.620 137.600,262.800 136.711,262.800 135.624 C 262.800 134.537,262.980 133.536,263.200 133.400 C 263.420 133.264,263.600 132.533,263.600 131.776 C 263.600 131.019,263.765 130.400,263.966 130.400 C 264.167 130.400,264.458 129.050,264.613 127.400 C 264.767 125.750,265.053 124.400,265.247 124.400 C 266.447 124.400,265.335 110.425,264.073 109.645 C 263.758 109.451,263.582 108.076,263.563 105.674 C 263.547 103.653,263.369 102.000,263.167 102.000 C 262.965 102.000,262.800 101.640,262.800 101.200 C 262.800 100.760,262.620 100.400,262.400 100.400 C 262.180 100.400,262.000 100.040,262.000 99.600 C 262.000 99.160,261.820 98.800,261.600 98.800 C 261.380 98.800,261.200 98.260,261.200 97.600 C 261.200 96.940,261.020 96.400,260.800 96.400 C 260.580 96.400,260.400 95.810,260.400 95.088 C 260.400 94.235,260.120 93.575,259.600 93.200 C 259.160 92.883,258.800 92.247,258.800 91.787 C 258.800 91.327,258.440 90.564,258.000 90.092 C 257.560 89.620,257.200 89.038,257.200 88.799 C 257.200 88.559,256.756 87.920,256.214 87.378 C 255.609 86.772,255.324 86.143,255.475 85.748 C 255.642 85.314,255.148 84.563,253.961 83.443 C 251.889 81.489,251.200 80.382,251.200 79.005 C 251.200 78.173,251.009 78.000,250.088 78.000 C 249.435 78.000,248.739 77.670,248.400 77.200 C 248.083 76.760,247.522 76.400,247.154 76.400 C 246.787 76.400,246.382 76.130,246.255 75.800 C 246.129 75.470,245.659 75.200,245.213 75.200 C 244.766 75.200,244.400 75.020,244.400 74.800 C 244.400 74.580,244.040 74.400,243.600 74.400 C 243.067 74.400,242.800 74.133,242.800 73.600 C 242.800 73.067,242.533 72.800,242.000 72.800 C 241.560 72.800,241.200 72.620,241.200 72.400 C 241.200 72.180,240.880 72.000,240.488 72.000 C 240.097 72.000,239.517 71.640,239.200 71.200 C 238.882 70.759,238.165 70.400,237.600 70.400 C 237.035 70.400,236.318 70.041,236.000 69.600 C 235.683 69.160,235.013 68.800,234.512 68.800 C 234.010 68.800,233.600 68.620,233.600 68.400 C 233.600 68.180,233.240 68.000,232.800 68.000 C 232.360 68.000,232.000 67.820,232.000 67.600 C 232.000 67.380,231.537 67.200,230.971 67.200 C 229.917 67.200,228.800 66.392,228.800 65.629 C 228.800 65.393,228.395 65.196,227.900 65.191 C 227.405 65.186,226.550 64.830,226.000 64.400 C 225.450 63.970,224.725 63.614,224.388 63.609 C 224.052 63.604,223.517 63.240,223.200 62.800 C 222.883 62.360,222.206 62.000,221.695 62.000 C 221.184 62.000,220.380 61.640,219.908 61.200 C 219.328 60.660,218.496 60.400,217.348 60.400 C 216.413 60.400,215.536 60.220,215.400 60.000 C 215.264 59.780,214.263 59.600,213.176 59.600 C 212.089 59.600,211.200 59.420,211.200 59.200 C 211.200 58.965,209.800 58.800,207.800 58.800 C 205.674 58.800,204.400 58.641,204.400 58.376 C 204.400 58.143,204.239 58.052,204.042 58.174 C 203.845 58.296,203.581 58.126,203.454 57.798 C 203.187 57.101,200.546 56.962,200.322 57.633 M187.287 58.767 C 187.354 59.121,187.893 59.456,188.510 59.527 C 189.117 59.597,189.510 59.822,189.383 60.027 C 189.256 60.232,189.363 60.400,189.619 60.400 C 189.880 60.400,189.979 60.121,189.843 59.767 C 189.709 59.419,189.600 58.909,189.600 58.634 C 189.600 58.343,189.091 58.133,188.384 58.133 C 187.490 58.133,187.199 58.301,187.287 58.767 M198.411 60.734 C 198.217 61.100,197.955 61.731,197.828 62.135 C 197.633 62.758,197.340 62.828,195.899 62.594 C 192.898 62.106,192.901 60.973,195.906 59.964 C 197.988 59.266,199.021 59.583,198.411 60.734 M210.654 61.798 C 211.677 62.331,211.706 62.395,210.924 62.398 C 210.442 62.399,209.949 62.560,209.828 62.755 C 209.616 63.098,207.828 63.544,205.432 63.851 C 204.756 63.937,203.979 63.743,203.590 63.391 C 203.219 63.055,202.617 62.895,202.253 63.035 C 201.888 63.175,201.330 63.074,201.012 62.810 C 200.695 62.547,200.247 62.447,200.018 62.589 C 199.788 62.731,199.600 62.671,199.600 62.455 C 199.600 62.088,201.979 61.752,206.600 61.467 C 207.700 61.400,208.804 61.312,209.054 61.272 C 209.304 61.232,210.024 61.469,210.654 61.798 M176.965 64.242 C 177.995 64.637,177.307 65.135,175.316 65.434 C 173.511 65.704,171.941 66.776,171.526 68.022 C 171.384 68.449,171.209 68.365,170.851 67.695 C 170.421 66.893,170.476 66.751,171.344 66.421 C 171.880 66.217,172.582 65.675,172.904 65.216 C 173.253 64.718,173.736 64.477,174.103 64.618 C 174.442 64.748,174.838 64.662,174.983 64.427 C 175.279 63.949,176.021 63.880,176.965 64.242 M180.574 64.358 C 180.696 64.555,180.512 64.825,180.165 64.958 C 179.095 65.369,178.400 65.228,178.400 64.600 C 178.400 63.945,180.196 63.746,180.574 64.358 M211.400 65.765 C 210.960 66.100,210.189 66.380,209.686 66.387 C 209.183 66.394,208.338 66.684,207.807 67.032 C 207.139 67.470,206.637 67.548,206.170 67.287 C 204.993 66.628,207.361 65.440,210.184 65.273 C 212.063 65.163,212.146 65.196,211.400 65.765 M192.400 69.371 C 192.400 70.101,191.432 71.072,190.367 71.410 C 189.151 71.796,189.127 71.523,190.250 70.088 C 191.298 68.749,192.400 68.382,192.400 69.371 M170.179 71.623 C 169.792 72.050,169.324 72.400,169.138 72.400 C 168.501 72.400,168.800 71.494,169.691 70.721 C 170.792 69.766,171.191 70.505,170.179 71.623 M167.345 72.200 C 167.471 72.530,167.851 72.800,168.187 72.800 C 168.917 72.800,169.023 73.979,168.300 74.046 C 167.370 74.132,167.003 74.247,165.537 74.914 C 164.732 75.281,163.981 75.810,163.868 76.090 C 163.755 76.371,163.649 76.195,163.632 75.700 C 163.614 75.205,163.360 74.800,163.067 74.800 C 162.226 74.800,162.024 75.211,162.390 76.175 C 162.841 77.360,162.426 77.934,160.775 78.407 C 158.269 79.126,156.138 78.703,157.627 77.783 C 157.862 77.638,157.966 77.287,157.857 77.004 C 157.731 76.676,158.121 76.395,158.929 76.232 C 159.930 76.031,160.072 75.895,159.600 75.594 C 159.060 75.250,159.312 75.028,160.100 75.153 C 160.265 75.179,160.400 75.026,160.400 74.813 C 160.400 74.599,160.656 74.523,160.969 74.644 C 161.290 74.766,161.722 74.520,161.957 74.080 C 162.444 73.170,164.463 72.655,164.882 73.333 C 165.095 73.677,165.287 73.673,165.646 73.314 C 166.019 72.941,166.012 72.697,165.614 72.217 C 165.176 71.689,165.247 71.600,166.108 71.600 C 166.662 71.600,167.218 71.870,167.345 72.200 M205.200 76.776 C 205.200 77.368,204.426 77.696,203.692 77.414 C 203.116 77.193,203.104 77.105,203.611 76.785 C 204.375 76.302,205.200 76.297,205.200 76.776 M252.652 84.682 C 252.322 85.012,251.200 84.483,251.200 83.998 C 251.200 83.703,251.456 83.709,252.034 84.018 C 252.493 84.264,252.771 84.562,252.652 84.682 M144.229 88.000 C 144.229 88.440,143.987 88.800,143.691 88.800 C 143.395 88.800,143.263 88.978,143.397 89.195 C 143.533 89.415,143.388 89.493,143.072 89.372 C 142.619 89.198,143.471 87.583,144.214 87.207 C 144.222 87.203,144.229 87.560,144.229 88.000 M145.200 89.400 C 145.200 89.730,144.930 90.000,144.600 90.000 C 143.559 90.000,143.896 89.212,145.100 88.832 C 145.155 88.814,145.200 89.070,145.200 89.400 M142.650 90.880 C 142.809 91.138,142.555 91.182,141.950 91.001 C 141.053 90.733,141.042 90.750,141.756 91.294 C 142.450 91.824,142.456 91.893,141.835 92.131 C 141.363 92.312,141.248 92.241,141.456 91.895 C 141.653 91.567,141.525 91.585,141.077 91.949 C 140.445 92.462,140.130 93.600,140.620 93.600 C 141.390 93.600,143.201 92.263,143.206 91.690 C 143.211 91.098,143.267 91.085,143.600 91.600 C 143.937 92.122,143.989 92.115,143.994 91.547 C 143.997 91.187,143.640 90.799,143.199 90.684 C 142.717 90.558,142.499 90.636,142.650 90.880 M137.700 97.865 C 136.983 98.154,137.084 98.971,137.931 99.738 C 138.906 100.620,139.429 100.574,139.429 99.606 C 139.429 99.084,139.293 98.947,139.034 99.206 C 138.372 99.868,138.065 99.650,138.180 98.600 C 138.241 98.050,138.270 97.614,138.245 97.632 C 138.220 97.649,137.975 97.754,137.700 97.865 M262.800 104.600 C 262.800 105.150,262.635 105.600,262.433 105.600 C 261.965 105.600,261.663 104.749,261.902 104.100 C 262.220 103.234,262.800 103.557,262.800 104.600 M185.102 116.700 C 185.210 117.027,184.841 117.200,184.033 117.200 C 183.180 117.200,182.800 117.007,182.800 116.573 C 182.800 115.811,184.848 115.924,185.102 116.700 M184.000 120.568 C 184.000 121.141,181.743 121.876,181.311 121.444 C 181.183 121.317,181.691 120.947,182.439 120.622 C 184.127 119.890,184.000 119.894,184.000 120.568 M188.580 122.042 C 189.257 122.679,187.040 122.406,186.200 121.748 C 185.443 121.156,185.475 121.137,186.800 121.403 C 187.570 121.558,188.371 121.845,188.580 122.042 M179.902 123.700 C 179.715 124.271,177.855 124.583,176.877 124.208 C 176.312 123.991,176.303 123.906,176.811 123.585 C 177.715 123.013,180.099 123.102,179.902 123.700 M192.800 126.042 C 192.800 126.285,193.279 127.050,193.865 127.742 L 194.929 129.000 194.632 127.802 C 194.198 126.049,192.800 124.706,192.800 126.042 M160.100 132.723 C 160.892 133.403,161.015 134.000,160.362 134.000 C 159.643 134.000,157.573 132.368,157.808 131.987 C 158.072 131.560,159.148 131.906,160.100 132.723 M166.967 133.443 C 168.068 133.865,167.655 134.212,166.000 134.255 C 164.288 134.300,163.808 133.770,165.300 133.482 C 165.795 133.387,166.230 133.284,166.267 133.254 C 166.304 133.225,166.619 133.309,166.967 133.443 M158.288 136.537 C 157.944 137.568,156.020 137.551,155.202 136.511 C 153.796 134.724,154.167 134.348,156.414 135.281 C 157.521 135.741,158.364 136.307,158.288 136.537 M170.051 138.138 C 169.714 138.544,168.908 138.800,167.962 138.800 C 165.972 138.800,162.167 140.607,161.090 142.063 C 160.628 142.688,160.011 143.200,159.720 143.200 C 159.103 143.200,159.359 145.977,160.120 147.540 C 160.490 148.300,160.459 148.569,159.959 148.940 C 158.428 150.076,159.185 153.912,160.837 153.388 C 161.673 153.123,161.821 153.639,161.228 154.748 C 160.409 156.279,162.713 156.868,165.933 155.952 C 166.251 155.861,166.654 156.359,166.933 157.190 C 167.190 157.954,167.829 158.793,168.354 159.053 C 168.879 159.314,169.419 159.701,169.554 159.913 C 169.689 160.124,170.668 160.691,171.730 161.172 C 173.231 161.853,173.563 162.163,173.225 162.570 C 172.906 162.955,172.941 163.219,173.359 163.566 C 173.800 163.932,174.002 163.922,174.256 163.519 C 174.481 163.163,174.649 163.375,174.795 164.196 C 175.043 165.597,176.777 165.839,180.000 164.921 C 180.990 164.639,182.312 164.407,182.938 164.404 C 183.564 164.402,184.576 164.044,185.186 163.610 C 185.796 163.175,186.769 162.640,187.348 162.420 C 188.640 161.929,188.763 160.453,187.600 159.400 C 186.530 158.432,186.592 158.000,187.800 158.000 C 188.350 158.000,188.804 157.775,188.809 157.500 C 188.834 156.098,190.279 155.028,191.270 155.678 L 192.226 156.304 191.831 153.918 C 191.501 151.921,191.557 151.195,192.174 149.466 C 193.794 144.929,193.495 142.764,191.100 141.704 C 190.495 141.436,190.000 141.036,190.000 140.814 C 190.000 139.934,186.921 139.178,182.335 138.932 C 179.731 138.792,177.600 138.563,177.600 138.424 C 177.600 137.994,173.268 137.966,173.003 138.395 C 172.591 139.062,170.872 138.867,170.729 138.138 C 170.609 137.521,170.562 137.521,170.051 138.138 M174.288 144.891 C 175.474 145.167,176.400 145.605,176.400 145.891 C 176.400 146.171,176.828 146.400,177.350 146.400 C 179.464 146.400,181.112 146.920,180.000 147.236 C 178.390 147.693,174.851 147.639,174.060 147.144 C 173.488 146.787,172.749 146.876,170.645 147.556 C 166.774 148.807,165.715 147.561,168.903 145.506 C 170.829 144.265,171.343 144.206,174.288 144.891 M167.600 145.600 C 167.600 145.820,167.251 146.000,166.824 146.000 C 166.397 146.000,165.936 145.820,165.800 145.600 C 165.660 145.373,165.996 145.200,166.576 145.200 C 167.139 145.200,167.600 145.380,167.600 145.600 M162.400 146.400 C 162.400 146.620,162.040 146.800,161.600 146.800 C 161.160 146.800,160.800 146.620,160.800 146.400 C 160.800 146.180,161.160 146.000,161.600 146.000 C 162.040 146.000,162.400 146.180,162.400 146.400 M177.767 148.324 C 180.142 148.746,180.014 149.499,177.523 149.754 C 173.179 150.197,170.000 150.298,170.000 149.993 C 170.000 148.676,174.411 147.728,177.767 148.324 M221.594 151.500 C 221.575 152.409,220.795 152.982,220.135 152.571 C 218.939 151.826,219.044 151.200,220.367 151.200 C 221.045 151.200,221.597 151.335,221.594 151.500 M173.002 154.407 C 173.611 156.910,175.017 157.718,178.286 157.442 C 179.654 157.327,180.873 157.394,180.995 157.592 C 181.460 158.345,179.788 158.672,176.358 158.499 C 173.287 158.344,172.800 158.407,172.800 158.959 C 172.800 159.957,172.138 159.717,171.180 158.372 C 170.699 157.697,169.865 156.977,169.326 156.772 C 167.838 156.206,168.919 153.628,171.000 152.780 C 172.238 152.275,172.543 152.523,173.002 154.407 M182.800 155.186 C 182.800 156.023,181.436 156.993,180.807 156.604 C 180.577 156.462,180.605 155.987,180.879 155.386 C 181.424 154.190,182.800 154.047,182.800 155.186 M248.410 158.885 C 248.977 163.508,248.716 171.036,247.794 176.658 C 247.475 178.606,247.211 180.810,247.207 181.556 C 247.203 182.350,246.925 183.113,246.537 183.396 C 245.963 183.816,245.937 184.125,246.339 185.723 C 246.806 187.579,246.125 192.681,245.167 194.495 C 244.965 194.877,244.800 195.479,244.800 195.833 C 244.800 196.187,244.451 196.967,244.023 197.567 C 243.473 198.340,243.295 199.115,243.410 200.229 C 243.500 201.093,243.324 202.340,243.018 203.000 C 242.713 203.660,242.175 205.026,241.823 206.035 C 241.019 208.342,240.254 209.404,239.661 209.038 C 239.013 208.637,239.088 205.559,239.795 203.474 C 240.123 202.510,240.371 201.019,240.347 200.160 C 240.323 199.302,240.423 198.060,240.569 197.400 C 240.716 196.740,241.017 194.220,241.238 191.800 C 241.460 189.380,241.812 186.847,242.020 186.172 C 242.731 183.871,241.866 180.194,240.954 181.640 C 240.759 181.948,240.240 182.394,239.800 182.630 C 239.360 182.867,238.743 183.632,238.428 184.330 C 238.084 185.094,237.560 185.600,237.114 185.600 C 236.691 185.600,236.019 186.201,235.547 187.000 C 235.093 187.770,234.559 188.400,234.360 188.400 C 234.162 188.400,234.000 188.704,234.000 189.076 C 234.000 189.682,233.943 189.675,233.461 189.015 C 232.753 188.047,232.000 188.552,232.000 189.994 C 232.000 191.108,230.391 192.400,229.003 192.400 C 228.742 192.400,228.323 192.850,228.073 193.400 C 227.650 194.328,227.131 194.550,225.600 194.459 C 225.197 194.435,225.164 194.496,225.500 194.645 C 225.775 194.767,226.000 195.176,226.000 195.553 C 226.000 195.931,226.217 196.457,226.482 196.722 C 226.952 197.192,226.991 199.767,226.539 200.499 C 226.414 200.701,225.974 200.312,225.562 199.633 C 224.706 198.226,223.380 198.002,223.000 199.200 C 222.860 199.640,222.409 200.000,221.997 200.000 C 221.584 200.000,221.131 200.189,220.988 200.419 C 220.565 201.104,219.775 200.180,219.001 198.094 C 218.615 197.052,218.066 195.660,217.782 195.000 C 215.935 190.708,215.600 189.838,215.600 189.327 C 215.600 189.013,215.068 187.731,214.418 186.478 C 212.475 182.732,210.054 174.905,210.343 173.305 C 210.393 173.032,210.248 172.463,210.021 172.039 C 209.459 170.990,209.362 167.479,209.890 167.303 C 210.189 167.204,210.183 166.809,209.871 165.982 C 209.505 165.014,209.543 164.686,210.082 164.147 C 210.897 163.332,212.000 163.700,212.000 164.787 C 212.000 165.234,212.264 165.600,212.586 165.600 C 212.908 165.600,213.357 165.946,213.583 166.369 C 214.288 167.685,215.218 168.400,216.229 168.400 C 216.763 168.400,217.200 168.604,217.200 168.853 C 217.200 169.525,218.812 170.800,219.661 170.800 C 220.068 170.800,220.400 170.517,220.400 170.171 C 220.400 169.760,220.711 169.573,221.300 169.631 C 221.795 169.679,222.507 169.586,222.883 169.423 C 223.258 169.261,224.386 169.303,225.388 169.517 C 226.391 169.730,227.301 169.760,227.410 169.583 C 228.096 168.474,235.492 170.124,239.975 172.387 C 243.788 174.312,243.981 174.123,244.798 167.659 C 245.003 166.041,245.390 164.453,245.658 164.130 C 245.941 163.789,246.177 162.124,246.220 160.157 C 246.261 158.296,246.408 156.659,246.547 156.520 C 246.686 156.380,246.800 155.937,246.800 155.533 C 246.800 155.130,247.050 154.800,247.355 154.800 C 247.759 154.800,248.046 155.908,248.410 158.885 M217.883 157.100 C 218.390 158.474,220.156 160.462,221.368 161.023 C 222.484 161.539,222.123 161.570,217.547 161.359 C 214.084 161.198,212.409 161.263,212.223 161.562 C 211.831 162.198,209.780 162.099,209.215 161.418 C 208.440 160.484,209.062 160.055,211.612 159.767 C 213.084 159.600,214.000 159.309,214.000 159.006 C 214.000 157.552,217.429 155.869,217.883 157.100 M142.000 181.612 C 142.000 182.148,143.522 183.439,143.787 183.128 C 143.847 183.057,143.469 182.554,142.948 182.008 C 142.286 181.316,142.000 181.196,142.000 181.612 M210.869 183.062 C 211.768 183.876,211.825 185.539,210.965 185.869 C 209.884 186.284,208.216 184.291,208.773 183.250 C 209.320 182.228,209.890 182.177,210.869 183.062 M178.400 183.400 C 177.992 183.891,178.020 184.000,178.551 184.000 C 178.908 184.000,179.200 183.730,179.200 183.400 C 179.200 183.070,179.132 182.800,179.049 182.800 C 178.966 182.800,178.674 183.070,178.400 183.400 M176.800 184.800 C 176.800 185.020,176.533 185.200,176.208 185.200 C 175.882 185.200,175.500 185.658,175.360 186.219 C 175.026 187.547,175.216 187.681,176.248 186.843 C 177.219 186.056,177.882 184.400,177.227 184.400 C 176.992 184.400,176.800 184.580,176.800 184.800 M254.168 192.660 C 254.326 193.072,254.181 193.217,253.703 193.124 C 253.321 193.051,252.949 192.679,252.876 192.297 C 252.711 191.445,253.821 191.757,254.168 192.660 M149.400 194.800 C 148.960 194.989,147.925 195.156,147.100 195.172 C 145.588 195.200,144.912 196.000,146.400 196.000 C 146.840 196.000,147.200 196.177,147.200 196.392 C 147.200 197.148,149.176 197.307,150.203 196.635 C 152.027 195.439,151.376 193.951,149.400 194.800 M153.600 210.078 C 153.600 210.205,153.869 210.824,154.198 211.454 C 154.526 212.084,154.790 212.330,154.785 212.000 C 154.779 211.670,154.510 211.051,154.187 210.624 C 153.864 210.196,153.600 209.951,153.600 210.078 M157.200 218.200 C 157.200 218.530,157.380 218.800,157.600 218.800 C 157.820 218.800,158.000 219.321,158.000 219.957 C 158.000 221.092,158.872 221.850,159.636 221.378 C 160.226 221.013,160.052 220.000,159.400 220.000 C 159.070 220.000,158.800 219.730,158.800 219.400 C 158.800 219.070,158.620 218.800,158.400 218.800 C 158.180 218.800,158.000 218.530,158.000 218.200 C 158.000 217.870,157.820 217.600,157.600 217.600 C 157.380 217.600,157.200 217.870,157.200 218.200 M153.720 253.453 C 154.109 253.843,152.180 255.200,151.237 255.200 C 150.760 255.200,150.400 254.942,150.400 254.600 C 150.400 254.267,150.756 254.000,151.200 254.000 C 151.640 254.000,152.000 253.820,152.000 253.600 C 152.000 253.161,153.315 253.049,153.720 253.453 M147.024 257.413 C 146.014 258.177,145.160 258.170,145.455 257.400 C 145.582 257.070,146.161 256.806,146.743 256.813 C 147.759 256.825,147.770 256.848,147.024 257.413 M129.200 264.400 C 129.200 264.620,128.941 264.800,128.624 264.800 C 128.307 264.800,127.936 264.620,127.800 264.400 C 127.664 264.180,127.923 264.000,128.376 264.000 C 128.829 264.000,129.200 264.180,129.200 264.400 " stroke="none" fill="#8490ff" fill-rule="evenodd"></path></g></svg>