<svg version="1.1" xmlns="http://www.w3.org/2000/svg" xmlns:xlink="http://www.w3.org/1999/xlink" viewBox="0 0 172 172"><g fill="none" fill-rule="nonzero" stroke="none" stroke-width="1" stroke-linecap="butt" stroke-linejoin="miter" stroke-miterlimit="10" stroke-dasharray="" stroke-dashoffset="0" font-family="none" font-weight="none" font-size="none" text-anchor="none" style="mix-blend-mode: normal"><path d="M0,172v-172h172v172z" fill="none"></path><g><path d="M158.5625,112.875h-17.23763l-10.75,-10.75h-28.44987v-5.375h30.67513l10.75,10.75h15.01237z" fill="#8490ff"></path><path d="M158.5625,137.0625h-17.23763l-21.5,-21.5h-17.69987v-5.375h19.92513l21.5,21.5h15.01237z" fill="#8490ff"></path><path d="M158.5625,161.25h-14.55013l-32.25,-32.25h-9.63737v-5.375h11.86263l32.25,32.25h12.32487z" fill="#8490ff"></path><path d="M132.80013,75.25h-30.67513v-5.375h28.44987l10.75,-10.75h17.23763v5.375h-15.01237z" fill="#8490ff"></path><path d="M122.05013,61.8125h-19.92513v-5.375h17.69987l21.5,-21.5h17.23763v5.375h-15.01237z" fill="#8490ff"></path><path d="M113.98763,48.375h-11.86263v-5.375h9.63737l32.25,-32.25h14.55013v5.375h-12.32487z" fill="#8490ff"></path><rect x="38" y="31" transform="scale(2.6875,2.6875)" width="21" height="2" fill="#8490ff"></rect><rect x="6" y="18" transform="scale(2.6875,2.6875)" width="18" height="2" fill="#8490ff"></rect><rect x="-2.35101" y="8.37683" transform="rotate(-54.162) scale(2.6875,2.6875)" width="2" height="22.204" fill="#8490ff"></rect><rect x="-12.8898" y="15.98827" transform="rotate(-54.162) scale(2.6875,2.6875)" width="2" height="22.204" fill="#8490ff"></rect><rect x="-21.48378" y="38.99519" transform="rotate(-35.836) scale(2.6875,2.6875)" width="22.204" height="2" fill="#8490ff"></rect><rect x="-23.42858" y="23.59971" transform="rotate(-54.162) scale(2.6875,2.6875)" width="2" height="22.204" fill="#8490ff"></rect><rect x="6" y="44" transform="scale(2.6875,2.6875)" width="18" height="2" fill="#8490ff"></rect><rect x="6" y="31" transform="scale(2.6875,2.6875)" width="18" height="2" fill="#8490ff"></rect><rect x="-29.68427" y="49.32071" transform="rotate(-37.418) scale(2.6875,2.6875)" width="21.401" height="1.999" fill="#8490ff"></rect><rect x="-13.87135" y="28.45593" transform="rotate(-35.836) scale(2.6875,2.6875)" width="22.204" height="2" fill="#8490ff"></rect><circle cx="60" cy="32" transform="scale(2.6875,2.6875)" r="2" fill="#884499"></circle><circle cx="60" cy="41" transform="scale(2.6875,2.6875)" r="2" fill="#884499"></circle><circle cx="60" cy="50" transform="scale(2.6875,2.6875)" r="2" fill="#884499"></circle><circle cx="60" cy="59" transform="scale(2.6875,2.6875)" r="2" fill="#884499"></circle><circle cx="60" cy="23" transform="scale(2.6875,2.6875)" r="2" fill="#884499"></circle><circle cx="60" cy="14" transform="scale(2.6875,2.6875)" r="2" fill="#884499"></circle><circle cx="60" cy="5" transform="scale(2.6875,2.6875)" r="2" fill="#884499"></circle><circle cx="6" cy="6" transform="scale(2.6875,2.6875)" r="4" fill="#4bbee5"></circle><circle cx="6" cy="19" transform="scale(2.6875,2.6875)" r="4" fill="#4bbee5"></circle><circle cx="6" cy="32" transform="scale(2.6875,2.6875)" r="4" fill="#4bbee5"></circle><circle cx="6" cy="45" transform="scale(2.6875,2.6875)" r="4" fill="#4bbee5"></circle><circle cx="6" cy="58" transform="scale(2.6875,2.6875)" r="4" fill="#4bbee5"></circle><rect x="27" y="18" transform="scale(2.6875,2.6875)" width="9" height="2" fill="#8490ff"></rect><rect x="27" y="31" transform="scale(2.6875,2.6875)" width="9" height="2" fill="#8490ff"></rect><rect x="27" y="44" transform="scale(2.6875,2.6875)" width="9" height="2" fill="#8490ff"></rect><path d="M99.4375,134.375v0c-2.96969,0 -5.375,-2.40531 -5.375,-5.375v-88.6875c0,-2.96969 2.40531,-5.375 5.375,-5.375v0c2.96969,0 5.375,2.40531 5.375,5.375v88.6875c0,2.96969 -2.40531,5.375 -5.375,5.375z" fill="#f800ba"></path><circle cx="24" cy="19" transform="scale(2.6875,2.6875)" r="4" fill="#884499"></circle><circle cx="24" cy="32" transform="scale(2.6875,2.6875)" r="4" fill="#884499"></circle><circle cx="24" cy="45" transform="scale(2.6875,2.6875)" r="4" fill="#884499"></circle><rect x="30" y="23" transform="scale(2.6875,2.6875)" width="2" height="2" fill="#8490ff"></rect><rect x="30" y="27" transform="scale(2.6875,2.6875)" width="2" height="2" fill="#8490ff"></rect><rect x="30" y="35" transform="scale(2.6875,2.6875)" width="2" height="2" fill="#8490ff"></rect><rect x="30" y="39" transform="scale(2.6875,2.6875)" width="2" height="2" fill="#8490ff"></rect></g></g></svg>