<svg version="1.1" xmlns="http://www.w3.org/2000/svg" xmlns:xlink="http://www.w3.org/1999/xlink" viewBox="0 0 172 172"><g fill="none" fill-rule="nonzero" stroke="none" stroke-width="1" stroke-linecap="butt" stroke-linejoin="miter" stroke-miterlimit="10" stroke-dasharray="" stroke-dashoffset="0" font-family="none" font-weight="none" font-size="none" text-anchor="none" style="mix-blend-mode: normal"><path d="M0,172v-172h172v172z" fill="none"></path><g fill="#8490ff"><path d="M67.1875,0c-1.48427,0 -2.6875,1.20323 -2.6875,2.6875v13.4375c0,1.48427 1.20323,2.6875 2.6875,2.6875h8.0625v72.5625c0,1.48427 1.20323,2.6875 2.6875,2.6875h12.32471l-12.93885,12.93884l-17.05933,-7.31189l-9.20154,-4.60339v-8.45618c3.61248,-2.90269 6.19162,-6.89382 7.35388,-11.37988h3.39612c4.45077,-0.00489 8.05761,-3.61173 8.0625,-8.0625v-5.375c-0.00549,-2.28123 -0.983,-4.45199 -2.6875,-5.96814v-12.84436c-0.00913,-7.95457 -5.80847,-14.71824 -13.66846,-15.94129c-1.21151,-6.33947 -6.75235,-10.92674 -13.20654,-10.93371h-8.0625c-13.35225,0.01481 -24.17269,10.83525 -24.1875,24.1875v15.53186c-1.7045,1.51615 -2.68201,3.68691 -2.6875,5.96814v5.375c0.00489,4.45077 3.61173,8.05761 8.0625,8.0625h3.39612c1.16226,4.48607 3.7414,8.4772 7.35388,11.37988v8.45618l-9.26453,4.63489c-0.02903,0.01451 -0.045,0.0474 -0.07349,0.06299c-0.03467,0.01908 -0.07166,0.01605 -0.10498,0.03674l-13.4375,8.0625c-1.27264,0.76387 -1.68508,2.4148 -0.9212,3.68744c0.76387,1.27264 2.4148,1.68508 3.68744,0.9212l11.63708,-6.9812l9.26453,9.26452c0.94468,0.94627 2.4415,1.05367 3.5116,0.25195l9.13855,-6.85522l9.13855,6.85522c1.07009,0.80172 2.56692,0.69432 3.5116,-0.25195l9.46399,-9.46399l17.13806,7.34863c1.01079,0.43429 2.18427,0.2075 2.96045,-0.57214l14.38757,-14.38757l6.22534,4.5404l-20.76514,26.29761l-14.33508,-4.77136c-0.82138,-0.28025 -1.72888,-0.12406 -2.4093,0.41467c-0.69922,0.48558 -1.11984,1.27985 -1.12854,2.1311v13.4375h-45.6875v-13.4375c0,-1.48427 -1.20323,-2.6875 -2.6875,-2.6875c-1.48427,0 -2.6875,1.20323 -2.6875,2.6875v13.4375h-8.0625c-1.48427,0 -2.6875,1.20323 -2.6875,2.6875c0,1.48427 1.20323,2.6875 2.6875,2.6875h80.625v5.375h-80.625c-1.48427,0 -2.6875,1.20323 -2.6875,2.6875c0,1.48427 1.20323,2.6875 2.6875,2.6875h72.5625v13.4375c0,1.48427 1.20323,2.6875 2.6875,2.6875c1.48427,0 2.6875,-1.20323 2.6875,-2.6875v-13.4375h5.375c1.48427,0 2.6875,-1.20323 2.6875,-2.6875v-10.75c0,-1.48427 -1.20323,-2.6875 -2.6875,-2.6875h-18.8125v-9.71069l12.58716,4.19397c0.27381,0.09334 0.56106,0.14121 0.85034,0.14172c0.82299,-0.0001 1.60056,-0.37728 2.11011,-1.02356l33.37854,-42.28088c2.67101,-3.37118 2.24608,-8.24115 -0.96842,-11.0988c-3.2145,-2.85765 -8.10072,-2.70921 -11.13583,0.3383l-8.37219,8.37744h-15.01221v-69.875h88.6875c1.48427,0 2.6875,-1.20323 2.6875,-2.6875c0,-1.48427 -1.20323,-2.6875 -2.6875,-2.6875h-99.4375v-8.0625h99.4375c1.48427,0 2.6875,-1.20323 2.6875,-2.6875c0,-1.48427 -1.20323,-2.6875 -2.6875,-2.6875zM32.25,21.5h8.0625c4.45077,0.00489 8.05761,3.61173 8.0625,8.0625c0,1.48427 1.20323,2.6875 2.6875,2.6875c5.93448,0.00622 10.74378,4.81552 10.75,10.75v10.75h-2.6875v-2.6875c-0.0006,-0.73433 -0.30226,-1.43631 -0.8346,-1.94214c-0.5282,-0.51085 -1.24509,-0.77897 -1.97888,-0.74011c-1.96187,0.05375 -5.92347,-0.95783 -10.71851,-8.99158c-0.19746,-0.38588 -0.45429,-0.73836 -0.76111,-1.04456c-0.55838,-0.52014 -1.31156,-0.77837 -2.07163,-0.71028c-0.76007,0.0681 -1.45535,0.4561 -1.91238,1.06721c-7.13827,9.51751 -21.8923,9.67395 -22.04065,9.67395c-1.48117,0.0054 -2.67975,1.20632 -2.68225,2.6875v2.6875h-2.6875v-13.4375c0.012,-10.38488 8.42762,-18.8005 18.8125,-18.8125zM110.1875,24.1875c-1.01802,-0.00013 -1.94873,0.57496 -2.40405,1.48547l-8.34595,16.69189l-2.97095,-5.9419c-0.45533,-0.91052 -1.38603,-1.4856 -2.40405,-1.48547h-5.375c-1.48427,0 -2.6875,1.20323 -2.6875,2.6875c0,1.48427 1.20323,2.6875 2.6875,2.6875h3.71106l4.63489,9.26453c0.45513,0.91079 1.38588,1.48617 2.40405,1.48617c1.01817,0 1.94892,-0.57538 2.40405,-1.48617l10.00989,-20.01453h17.14856c1.48427,0 2.6875,-1.20323 2.6875,-2.6875c0,-1.48427 -1.20323,-2.6875 -2.6875,-2.6875zM139.75,24.1875c-1.48427,0 -2.6875,1.20323 -2.6875,2.6875c0,1.48427 1.20323,2.6875 2.6875,2.6875h29.5625c1.48427,0 2.6875,-1.20323 2.6875,-2.6875c0,-1.48427 -1.20323,-2.6875 -2.6875,-2.6875zM126.27576,34.9375c-0.70001,0.00957 -1.36862,0.29209 -1.8634,0.78735l-3.47485,3.47485l-3.47485,-3.47485c-1.05378,-1.02337 -2.73399,-1.01107 -3.77267,0.02762c-1.03869,1.03869 -1.05099,2.71889 -0.02762,3.77267l3.47485,3.47485l-3.47485,3.47485c-0.69552,0.67545 -0.97332,1.67316 -0.72696,2.61087c0.24636,0.93771 0.97868,1.67003 1.91639,1.91639c0.93771,0.24636 1.93542,-0.03144 2.61087,-0.72696l3.47485,-3.47485l3.47485,3.47485c1.05378,1.02337 2.73399,1.01107 3.77267,-0.02762c1.03869,-1.03869 1.05099,-2.71889 0.02762,-3.77267l-3.47485,-3.47485l3.47485,-3.47485c0.50427,-0.50378 0.78762,-1.18735 0.78762,-1.90015c0,-0.7128 -0.28334,-1.39637 -0.78762,-1.90015c-0.51278,-0.51329 -1.21142,-0.79728 -1.93689,-0.78735zM139.75,34.9375c-1.48427,0 -2.6875,1.20323 -2.6875,2.6875c0,1.48427 1.20323,2.6875 2.6875,2.6875h29.5625c1.48427,0 2.6875,-1.20323 2.6875,-2.6875c0,-1.48427 -1.20323,-2.6875 -2.6875,-2.6875zM42.65881,44.75842c4.02883,5.77812 7.92612,8.05203 11.09119,8.74487v16.3717c0,8.90559 -7.21941,16.125 -16.125,16.125c-8.90559,0 -16.125,-7.21941 -16.125,-16.125v-16.27722c7.82789,-0.56135 15.25792,-3.66533 21.15881,-8.83935zM139.75,45.6875c-1.48427,0 -2.6875,1.20323 -2.6875,2.6875c0,1.48427 1.20323,2.6875 2.6875,2.6875h29.5625c1.48427,0 2.6875,-1.20323 2.6875,-2.6875c0,-1.48427 -1.20323,-2.6875 -2.6875,-2.6875zM91.375,56.4375c-1.48427,0 -2.6875,1.20323 -2.6875,2.6875c0,1.48427 1.20323,2.6875 2.6875,2.6875h77.9375c1.48427,0 2.6875,-1.20323 2.6875,-2.6875c0,-1.48427 -1.20323,-2.6875 -2.6875,-2.6875zM13.4375,59.125h2.6875v10.75h-2.6875c-1.48371,-0.00133 -2.68617,-1.20379 -2.6875,-2.6875v-5.375c0.00133,-1.48371 1.20379,-2.68617 2.6875,-2.6875zM59.125,59.125h2.6875c1.48371,0.00133 2.68617,1.20379 2.6875,2.6875v5.375c-0.00133,1.48371 -1.20379,2.68617 -2.6875,2.6875h-2.6875zM91.375,67.1875c-1.48427,0 -2.6875,1.20323 -2.6875,2.6875c0,1.48427 1.20323,2.6875 2.6875,2.6875h77.9375c1.48427,0 2.6875,-1.20323 2.6875,-2.6875c0,-1.48427 -1.20323,-2.6875 -2.6875,-2.6875zM124.96875,77.9375c-1.48427,0 -2.6875,1.20323 -2.6875,2.6875c0,1.48427 1.20323,2.6875 2.6875,2.6875h44.34375c1.48427,0 2.6875,-1.20323 2.6875,-2.6875c0,-1.48427 -1.20323,-2.6875 -2.6875,-2.6875zM109.58386,83.36499c1.09013,-0.05504 2.11349,0.52623 2.62451,1.49072c0.47042,0.94078 0.34726,2.06974 -0.31494,2.88696l-8.10974,10.27234l-5.71094,-4.16248l9.73694,-9.73694c0.48446,-0.45145 1.11281,-0.71729 1.77417,-0.75061zM125.02124,88.6875c-1.48427,0 -2.6875,1.20323 -2.6875,2.6875c0,1.48427 1.20323,2.6875 2.6875,2.6875h44.29126c1.48427,0 2.6875,-1.20323 2.6875,-2.6875c0,-1.48427 -1.20323,-2.6875 -2.6875,-2.6875zM29.5625,89.78979c2.55962,1.04508 5.29775,1.58343 8.0625,1.58521c2.76475,-0.00177 5.50288,-0.54013 8.0625,-1.58521v5.61646l-8.0625,6.04688l-8.0625,-6.04687zM26.59155,99.89941l6.55603,4.91309l-6.02063,4.51416l-6.4668,-6.4668zM48.65845,99.89941l5.9314,2.96045l-6.4668,6.4668l-6.02063,-4.51416z"></path></g></g></svg>