<svg version="1.1" xmlns="http://www.w3.org/2000/svg" xmlns:xlink="http://www.w3.org/1999/xlink" viewBox="0 0 172 172"><g fill="none" fill-rule="nonzero" stroke="none" stroke-width="1" stroke-linecap="butt" stroke-linejoin="miter" stroke-miterlimit="10" stroke-dasharray="" stroke-dashoffset="0" font-family="none" font-weight="none" font-size="none" text-anchor="none" style="mix-blend-mode: normal"><path d="M0,172v-172h172v172z" fill="none"></path><g fill="#ffffff"><path d="M91.68137,161.25c25.62263,0 49.28875,-12.814 63.3175,-34.28175c1.09113,-1.67162 1.16638,-3.8055 0.19888,-5.55237c-0.9675,-1.7415 -2.666,-2.881 -4.816,-2.76275l-1.27925,0.06987c-35.733,0 -64.80637,-28.94975 -64.80637,-64.53225c0,-12.48075 3.62812,-24.62287 10.48662,-35.12562c1.09112,-1.66625 1.16637,-3.80012 0.20425,-5.54162c-0.9675,-1.74688 -2.75737,-2.81113 -4.81062,-2.7735c-40.83388,0.80625 -74.05138,34.54513 -74.05138,75.21775c0,41.51112 33.89475,75.28225 75.55637,75.28225zM80.61963,22.43525c-4.64937,9.91687 -7.0735,20.72062 -7.0735,31.75012c0,38.43663 29.06262,70.2405 66.44575,74.73938c-12.21738,13.65788 -29.66463,21.57525 -48.3105,21.57525c-35.733,0 -64.80637,-28.94975 -64.80637,-64.53225c0,-31.55125 23.34363,-58.23812 53.74463,-63.5325z"></path></g></g></svg>